  0
SECTION
  2
HEADER
  9
$ACADVER
  1
AC1015
  9
$ACADMAINTVER
 70
     6
  9
$DWGCODEPAGE
  3
ANSI_1252
  9
$INSBASE
 10
0.0
 20
0.0
 30
0.0
  9
$EXTMIN
 10
0.0
 20
0.0
 30
0.0
  9
$EXTMAX
 10
609.6
 20
990.6
 30
0.0
  9
$LIMMIN
 10
0.0
 20
0.0
  9
$LIMMAX
 10
609.6
 20
990.6
  9
$ORTHOMODE
 70
     0
  9
$REGENMODE
 70
     1
  9
$FILLMODE
 70
     1
  9
$QTEXTMODE
 70
     0
  9
$MIRRTEXT
 70
     1
  9
$LTSCALE
 40
1.0
  9
$ATTMODE
 70
     1
  9
$TEXTSIZE
 40
3.5
  9
$TRACEWID
 40
1.0
  9
$TEXTSTYLE
  7
Standard
  9
$CLAYER
  8
0
  9
$CELTYPE
  6
ByLayer
  9
$CECOLOR
 62
   256
  9
$CELTSCALE
 40
1.0
  9
$DISPSILH
 70
     0
  9
$DIMSCALE
 40
1.0
  9
$DIMASZ
 40
3.302
  9
$DIMEXO
 40
1.0
  9
$DIMDLI
 40
3.75
  9
$DIMRND
 40
0.0
  9
$DIMDLE
 40
0.0
  9
$DIMEXE
 40
1.0
  9
$DIMTP
 40
0.0
  9
$DIMTM
 40
0.0
  9
$DIMTXT
 40
3.5
  9
$DIMCEN
 40
2.5
  9
$DIMTSZ
 40
0.0
  9
$DIMTOL
 70
     0
  9
$DIMLIM
 70
     0
  9
$DIMTIH
 70
     1
  9
$DIMTOH
 70
     1
  9
$DIMSE1
 70
     0
  9
$DIMSE2
 70
     0
  9
$DIMTAD
 70
     1
  9
$DIMZIN
 70
     0
  9
$DIMBLK
  1

  9
$DIMASO
 70
     1
  9
$DIMSHO
 70
     1
  9
$DIMPOST
  1

  9
$DIMAPOST
  1

  9
$DIMALT
 70
     0
  9
$DIMALTD
 70
     3
  9
$DIMALTF
 40
0.0393700787
  9
$DIMLFAC
 40
1.0
  9
$DIMTOFL
 70
     1
  9
$DIMTVP
 40
0.0
  9
$DIMTIX
 70
     0
  9
$DIMSOXD
 70
     0
  9
$DIMSAH
 70
     0
  9
$DIMBLK1
  1

  9
$DIMBLK2
  1

  9
$DIMSTYLE
  2
ISO-25
  9
$DIMCLRD
 70
     0
  9
$DIMCLRE
 70
     0
  9
$DIMCLRT
 70
     0
  9
$DIMTFAC
 40
1.0
  9
$DIMGAP
 40
1.524
  9
$DIMJUST
 70
     0
  9
$DIMSD1
 70
     0
  9
$DIMSD2
 70
     0
  9
$DIMTOLJ
 70
     0
  9
$DIMTZIN
 70
     0
  9
$DIMALTZ
 70
     0
  9
$DIMALTTZ
 70
     0
  9
$DIMUPT
 70
     0
  9
$DIMDEC
 70
     2
  9
$DIMTDEC
 70
     2
  9
$DIMALTU
 70
     2
  9
$DIMALTTD
 70
     3
  9
$DIMTXSTY
  7
Standard
  9
$DIMAUNIT
 70
     0
  9
$DIMADEC
 70
     2
  9
$DIMALTRND
 40
0.0
  9
$DIMAZIN
 70
     0
  9
$DIMDSEP
 70
    44
  9
$DIMATFIT
 70
     3
  9
$DIMFRAC
 70
     0
  9
$DIMLDRBLK
  1

  9
$DIMLUNIT
 70
     2
  9
$DIMLWD
 70
    -2
  9
$DIMLWE
 70
    -2
  9
$DIMTMOVE
 70
     0
  9
$LUNITS
 70
     2
  9
$LUPREC
 70
     2
  9
$SKETCHINC
 40
1.0
  9
$FILLETRAD
 40
10.0
  9
$AUNITS
 70
     0
  9
$AUPREC
 70
     2
  9
$MENU
  1
.
  9
$ELEVATION
 40
0.0
  9
$PELEVATION
 40
0.0
  9
$THICKNESS
 40
0.0
  9
$LIMCHECK
 70
     0
  9
$CHAMFERA
 40
0.0
  9
$CHAMFERB
 40
0.0
  9
$CHAMFERC
 40
0.0
  9
$CHAMFERD
 40
0.0
  9
$SKPOLY
 70
     0
  9
$TDCREATE
 40
2458333.503194722
  9
$TDUCREATE
 40
2458333.669861389
  9
$TDUPDATE
 40
2458333.503195405
  9
$TDUUPDATE
 40
2458333.669862072
  9
$TDINDWG
 40
0.0000000116
  9
$TDUSRTIMER
 40
0.0000000116
  9
$USRTIMER
 70
     1
  9
$ANGBASE
 50
0.0
  9
$ANGDIR
 70
     0
  9
$PDMODE
 70
     0
  9
$PDSIZE
 40
-1.0
  9
$PLINEWID
 40
0.0
  9
$SPLFRAME
 70
     0
  9
$SPLINETYPE
 70
     6
  9
$SPLINESEGS
 70
     8
  9
$HANDSEED
  5
1D8
  9
$SURFTAB1
 70
     6
  9
$SURFTAB2
 70
     6
  9
$SURFTYPE
 70
     6
  9
$SURFU
 70
     6
  9
$SURFV
 70
     6
  9
$UCSBASE
  2

  9
$UCSNAME
  2

  9
$UCSORG
 10
0.0
 20
0.0
 30
0.0
  9
$UCSXDIR
 10
1.0
 20
0.0
 30
0.0
  9
$UCSYDIR
 10
0.0
 20
1.0
 30
0.0
  9
$UCSORTHOREF
  2

  9
$UCSORTHOVIEW
 70
     0
  9
$UCSORGTOP
 10
0.0
 20
0.0
 30
0.0
  9
$UCSORGBOTTOM
 10
0.0
 20
0.0
 30
0.0
  9
$UCSORGLEFT
 10
0.0
 20
0.0
 30
0.0
  9
$UCSORGRIGHT
 10
0.0
 20
0.0
 30
0.0
  9
$UCSORGFRONT
 10
0.0
 20
0.0
 30
0.0
  9
$UCSORGBACK
 10
0.0
 20
0.0
 30
0.0
  9
$PUCSBASE
  2

  9
$PUCSNAME
  2

  9
$PUCSORG
 10
0.0
 20
0.0
 30
0.0
  9
$PUCSXDIR
 10
1.0
 20
0.0
 30
0.0
  9
$PUCSYDIR
 10
0.0
 20
1.0
 30
0.0
  9
$PUCSORTHOREF
  2

  9
$PUCSORTHOVIEW
 70
     0
  9
$PUCSORGTOP
 10
0.0
 20
0.0
 30
0.0
  9
$PUCSORGBOTTOM
 10
0.0
 20
0.0
 30
0.0
  9
$PUCSORGLEFT
 10
0.0
 20
0.0
 30
0.0
  9
$PUCSORGRIGHT
 10
0.0
 20
0.0
 30
0.0
  9
$PUCSORGFRONT
 10
0.0
 20
0.0
 30
0.0
  9
$PUCSORGBACK
 10
0.0
 20
0.0
 30
0.0
  9
$USERI1
 70
     0
  9
$USERI2
 70
     0
  9
$USERI3
 70
     0
  9
$USERI4
 70
     0
  9
$USERI5
 70
     0
  9
$USERR1
 40
0.0
  9
$USERR2
 40
0.0
  9
$USERR3
 40
0.0
  9
$USERR4
 40
0.0
  9
$USERR5
 40
0.0
  9
$WORLDVIEW
 70
     1
  9
$SHADEDGE
 70
     3
  9
$SHADEDIF
 70
    70
  9
$TILEMODE
 70
     1
  9
$MAXACTVP
 70
    64
  9
$PINSBASE
 10
0.0
 20
0.0
 30
0.0
  9
$PLIMCHECK
 70
     0
  9
$PEXTMIN
 10
1.0000000000E+20
 20
1.0000000000E+20
 30
1.0000000000E+20
  9
$PEXTMAX
 10
-1.0000000000E+20
 20
-1.0000000000E+20
 30
-1.0000000000E+20
  9
$PLIMMIN
 10
0.0
 20
0.0
  9
$PLIMMAX
 10
420.0
 20
297.0
  9
$UNITMODE
 70
     0
  9
$VISRETAIN
 70
     1
  9
$PLINEGEN
 70
     0
  9
$PSLTSCALE
 70
     1
  9
$TREEDEPTH
 70
  3020
  9
$CMLSTYLE
  2
Standard
  9
$CMLJUST
 70
     0
  9
$CMLSCALE
 40
20.0
  9
$PROXYGRAPHICS
 70
     1
  9
$MEASUREMENT
 70
     1
  9
$CELWEIGHT
370
    -1
  9
$ENDCAPS
280
     0
  9
$JOINSTYLE
280
     0
  9
$LWDISPLAY
290
     1
  9
$INSUNITS
 70
     4
  9
$HYPERLINKBASE
  1

  9
$STYLESHEET
  1

  9
$XEDIT
290
     1
  9
$CEPSNTYPE
380
     0
  9
$PSTYLEMODE
290
     1
  9
$FINGERPRINTGUID
  2
{E644BC7A-3FC1-4287-AA19-8A7636DF4246}
  9
$VERSIONGUID
  2
{FAEB1C32-E019-11D5-929B-00C0DF256EC4}
  9
$EXTNAMES
290
     1
  9
$PSVPSCALE
 40
0.0
  9
$OLESTARTUP
290
     0
  0
ENDSEC
  0
SECTION
  2
CLASSES
  0
CLASS
  1
ACDBDICTIONARYWDFLT
  2
AcDbDictionaryWithDefault
  3
ObjectDBX Classes
 90
        0
280
     0
281
     0
  0
CLASS
  1
VISUALSTYLE
  2
AcDbVisualStyle
  3
ObjectDBX Classes
 90
     4095
280
     0
281
     0
  0
CLASS
  1
MATERIAL
  2
AcDbMaterial
  3
ObjectDBX Classes
 90
     1153
280
     0
281
     0
  0
CLASS
  1
SCALE
  2
AcDbScale
  3
ObjectDBX Classes
 90
     1153
280
     0
281
     0
  0
CLASS
  1
TABLESTYLE
  2
AcDbTableStyle
  3
ObjectDBX Classes
 90
     4095
280
     0
281
     0
  0
CLASS
  1
MLEADERSTYLE
  2
AcDbMLeaderStyle
  3
ACDB_MLEADERSTYLE_CLASS
 90
     4095
280
     0
281
     0
  0
CLASS
  1
SUN
  2
AcDbSun
  3
SCENEOE
 90
     1153
280
     0
281
     0
  0
CLASS
  1
ACDBPLACEHOLDER
  2
AcDbPlaceHolder
  3
ObjectDBX Classes
 90
        0
280
     0
281
     0
  0
CLASS
  1
LAYOUT
  2
AcDbLayout
  3
ObjectDBX Classes
 90
        0
280
     0
281
     0
  0
ENDSEC
  0
SECTION
  2
TABLES
  0
TABLE
  2
VPORT
  5
8
330
0
100
AcDbSymbolTable
 70
     1
  0
VPORT
  5
29
330
8
100
AcDbSymbolTableRecord
100
AcDbViewportTableRecord
  2
*Active
 70
     0
 10
0.0
 20
0.0
 11
1.0
 21
1.0
 12
304.8
 22
495.3
 13
0.0
 23
0.0
 14
10.0
 24
10.0
 15
10.0
 25
10.0
 16
0.0
 26
0.0
 36
1.0
 17
0.0
 27
0.0
 37
0.0
 40
990.6
 41
0.6153846154
 42
50.0
 43
0.0
 44
0.0
 50
0.0
 51
0.0
 71
     0
 72
  2000
 73
     1
 74
     3
 75
     0
 76
     0
 77
     0
 78
     0
281
     0
 65
     1
110
0.0
120
0.0
130
0.0
111
1.0
121
0.0
131
0.0
112
0.0
122
1.0
132
0.0
 79
     0
146
0.0
  0
ENDTAB
  0
TABLE
  2
LTYPE
  5
5
330
0
100
AcDbSymbolTable
 70
     6
  0
LTYPE
  5
14
330
5
100
AcDbSymbolTableRecord
100
AcDbLinetypeTableRecord
  2
ByBlock
 70
     0
  3

 72
    65
 73
     0
 40
0.0
  0
LTYPE
  5
15
330
5
100
AcDbSymbolTableRecord
100
AcDbLinetypeTableRecord
  2
ByLayer
 70
     0
  3

 72
    65
 73
     0
 40
0.0
  0
LTYPE
  5
16
330
5
100
AcDbSymbolTableRecord
100
AcDbLinetypeTableRecord
  2
Continuous
 70
     0
  3
Solid line
 72
    65
 73
     0
 40
0.0
  0
LTYPE
  5
6E
330
5
100
AcDbSymbolTableRecord
100
AcDbLinetypeTableRecord
  2
HIDDEN
 70
     0
  3
Hidden __ __ __ __ __ __ __ __ __ __ __ __ __ __
 72
    65
 73
     2
 40
1.905
 49
1.27
 74
     0
 49
-0.635
 74
     0
  0
LTYPE
  5
6F
330
5
100
AcDbSymbolTableRecord
100
AcDbLinetypeTableRecord
  2
PHANTOM
 70
     0
  3
Phantom ______  __  __  ______  __  __  ______
 72
    65
 73
     6
 40
12.7
 49
6.35
 74
     0
 49
-1.27
 74
     0
 49
1.27
 74
     0
 49
-1.27
 74
     0
 49
1.27
 74
     0
 49
-1.27
 74
     0
  0
LTYPE
  5
70
330
5
100
AcDbSymbolTableRecord
100
AcDbLinetypeTableRecord
  2
CENTER
 70
     0
  3
Center ____ _ ____ _ ____ _ ____ _ ____ _ ____
 72
    65
 73
     4
 40
10.16
 49
6.35
 74
     0
 49
-1.27
 74
     0
 49
1.27
 74
     0
 49
-1.27
 74
     0
  0
LTYPE
  5
71
330
5
100
AcDbSymbolTableRecord
100
AcDbLinetypeTableRecord
  2
CENTERX2
 70
     0
  3
Center (2x) ________  __  ________  __  _____
 72
    65
 73
     4
 40
20.32
 49
12.7
 74
     0
 49
-2.54
 74
     0
 49
2.54
 74
     0
 49
-2.54
 74
     0
  0
LTYPE
  5
72
330
5
100
AcDbSymbolTableRecord
100
AcDbLinetypeTableRecord
  2
DOT2
 70
     0
  3
Dot (.5x) ........................................
 72
    65
 73
     2
 40
0.635
 49
0.0
 74
     0
 49
-0.635
 74
     0
  0
ENDTAB
  0
TABLE
  2
LAYER
  5
2
330
0
100
AcDbSymbolTable
 70
     1
  0
LAYER
  5
10
330
2
100
AcDbSymbolTableRecord
100
AcDbLayerTableRecord
  2
0
 70
     0
 62
     7
  6
Continuous
370
    -3
390
F
  0
ENDTAB
  0
TABLE
  2
STYLE
  5
3
330
0
100
AcDbSymbolTable
 70
     1
  0
STYLE
  5
11
330
3
100
AcDbSymbolTableRecord
100
AcDbTextStyleTableRecord
  2
Standard
 70
     0
 40
0.0
 41
1.0
 50
0.0
 71
     0
 42
3.5
  3
txt
  4

  0
ENDTAB
  0
TABLE
  2
VIEW
  5
6
330
0
100
AcDbSymbolTable
 70
     0
  0
ENDTAB
  0
TABLE
  2
UCS
  5
7
330
0
100
AcDbSymbolTable
 70
     0
  0
ENDTAB
  0
TABLE
  2
APPID
  5
9
330
0
100
AcDbSymbolTable
 70
     1
  0
APPID
  5
12
330
9
100
AcDbSymbolTableRecord
100
AcDbRegAppTableRecord
  2
ACAD
 70
     0
  0
ENDTAB
  0
TABLE
  2
DIMSTYLE
  5
A
330
0
100
AcDbSymbolTable
 70
     1
100
AcDbDimStyleTable
  0
DIMSTYLE
105
27
330
A
100
AcDbSymbolTableRecord
100
AcDbDimStyleTableRecord
  2
ISO-25
 70
     0
 41
2.5
 42
0.625
 43
3.75
 44
1.25
 73
     0
 74
     0
 77
     1
 78
     8
140
2.5
141
2.5
143
0.0393700787
147
0.625
171
     3
172
     1
178
     0
271
     2
272
     2
274
     3
278
    44
283
     0
284
     8
340
11
  0
ENDTAB
  0
TABLE
  2
BLOCK_RECORD
  5
1
330
0
100
AcDbSymbolTable
 70
     1
  0
BLOCK_RECORD
  5
1F
330
1
100
AcDbSymbolTableRecord
100
AcDbBlockTableRecord
  2
*Model_Space
340
22
  0
BLOCK_RECORD
  5
1B
330
1
100
AcDbSymbolTableRecord
100
AcDbBlockTableRecord
  2
*Paper_Space
340
1E
  0
BLOCK_RECORD
  5
23
330
1
100
AcDbSymbolTableRecord
100
AcDbBlockTableRecord
  2
*Paper_Space0
340
26
  0
ENDTAB
  0
ENDSEC
  0
SECTION
  2
BLOCKS
  0
BLOCK
  5
20
330
1F
100
AcDbEntity
  8
0
100
AcDbBlockBegin
  2
*Model_Space
 70
     0
 10
0.0
 20
0.0
 30
0.0
  3
*Model_Space
  1

  0
ENDBLK
  5
21
330
1F
100
AcDbEntity
  8
0
100
AcDbBlockEnd
  0
BLOCK
  5
1C
330
1B
100
AcDbEntity
 67
     1
  8
0
100
AcDbBlockBegin
  2
*Paper_Space
 70
     0
 10
0.0
 20
0.0
 30
0.0
  3
*Paper_Space
  1

  0
ENDBLK
  5
1D
330
1B
100
AcDbEntity
 67
     1
  8
0
100
AcDbBlockEnd
  0
BLOCK
  5
24
330
23
100
AcDbEntity
  8
0
100
AcDbBlockBegin
  2
*Paper_Space0
 70
     0
 10
0.0
 20
0.0
 30
0.0
  3
*Paper_Space0
  1

  0
ENDBLK
  5
25
330
23
100
AcDbEntity
  8
0
100
AcDbBlockEnd
  0
ENDSEC
  0
SECTION
  2
ENTITIES
  0
CIRCLE
  5
73
330
1F
100
AcDbEntity
  8
0
  6
Continuous
 62
     7
370
    15
100
AcDbCircle
 10
199.963493043
 20
475.2130268862
 30
0.0
 40
2.0
  0
LINE
  5
74
330
1F
100
AcDbEntity
  8
0
  6
Continuous
 62
     7
370
    15
100
AcDbLine
 10
204.9634956747
 20
470.2130229254
 30
0.0
 11
204.9634956747
 21
480.2130282899
 31
0.0
  0
LINE
  5
75
330
1F
100
AcDbEntity
  8
0
  6
Continuous
 62
     7
370
    15
100
AcDbLine
 10
194.9635052115
 20
470.2130229254
 30
0.0
 11
204.9634956747
 21
470.2130229254
 31
0.0
  0
LINE
  5
76
330
1F
100
AcDbEntity
  8
0
  6
Continuous
 62
     7
370
    15
100
AcDbLine
 10
194.9635052115
 20
480.2130282899
 30
0.0
 11
194.9635052115
 21
470.2130229254
 31
0.0
  0
LINE
  5
77
330
1F
100
AcDbEntity
  8
0
  6
Continuous
 62
     7
370
    15
100
AcDbLine
 10
204.9634956747
 20
480.2130282899
 30
0.0
 11
194.9635052115
 21
480.2130282899
 31
0.0
  0
CIRCLE
  5
78
330
1F
100
AcDbEntity
  8
0
  6
Continuous
 62
     7
370
    15
100
AcDbCircle
 10
199.963493043
 20
465.2130268862
 30
0.0
 40
2.0
  0
LINE
  5
79
330
1F
100
AcDbEntity
  8
0
  6
Continuous
 62
     7
370
    15
100
AcDbLine
 10
204.9634956747
 20
460.2130324622
 30
0.0
 11
204.9634956747
 21
470.2130229254
 31
0.0
  0
LINE
  5
7A
330
1F
100
AcDbEntity
  8
0
  6
Continuous
 62
     7
370
    15
100
AcDbLine
 10
194.9635052115
 20
460.2130324622
 30
0.0
 11
204.9634956747
 21
460.2130324622
 31
0.0
  0
LINE
  5
7B
330
1F
100
AcDbEntity
  8
0
  6
Continuous
 62
     7
370
    15
100
AcDbLine
 10
194.9635052115
 20
470.2130229254
 30
0.0
 11
194.9635052115
 21
460.2130324622
 31
0.0
  0
CIRCLE
  5
7C
330
1F
100
AcDbEntity
  8
0
  6
Continuous
 62
     7
370
    15
100
AcDbCircle
 10
199.963493043
 20
445.2130268862
 30
0.0
 40
2.0
  0
LINE
  5
7D
330
1F
100
AcDbEntity
  8
0
  6
Continuous
 62
     7
370
    15
100
AcDbLine
 10
204.9634956747
 20
440.2130217334
 30
0.0
 11
204.9634956747
 21
450.2130270978
 31
0.0
  0
LINE
  5
7E
330
1F
100
AcDbEntity
  8
0
  6
Continuous
 62
     7
370
    15
100
AcDbLine
 10
194.9635052115
 20
440.2130217334
 30
0.0
 11
204.9634956747
 21
440.2130217334
 31
0.0
  0
LINE
  5
7F
330
1F
100
AcDbEntity
  8
0
  6
Continuous
 62
     7
370
    15
100
AcDbLine
 10
194.9635052115
 20
450.2130270978
 30
0.0
 11
194.9635052115
 21
440.2130217334
 31
0.0
  0
LINE
  5
80
330
1F
100
AcDbEntity
  8
0
  6
Continuous
 62
     7
370
    15
100
AcDbLine
 10
204.9634956747
 20
450.2130270978
 30
0.0
 11
194.9635052115
 21
450.2130270978
 31
0.0
  0
CIRCLE
  5
81
330
1F
100
AcDbEntity
  8
0
  6
Continuous
 62
     7
370
    15
100
AcDbCircle
 10
199.963493043
 20
455.2130268862
 30
0.0
 40
2.0
  0
LINE
  5
82
330
1F
100
AcDbEntity
  8
0
  6
Continuous
 62
     7
370
    15
100
AcDbLine
 10
204.9634956747
 20
450.2130270978
 30
0.0
 11
204.9634956747
 21
460.2130324622
 31
0.0
  0
LINE
  5
83
330
1F
100
AcDbEntity
  8
0
  6
Continuous
 62
     7
370
    15
100
AcDbLine
 10
194.9635052115
 20
460.2130324622
 30
0.0
 11
194.9635052115
 21
450.2130270978
 31
0.0
  0
CIRCLE
  5
84
330
1F
100
AcDbEntity
  8
0
  6
Continuous
 62
     7
370
    15
100
AcDbCircle
 10
199.963493043
 20
435.2130268862
 30
0.0
 40
2.0
  0
LINE
  5
85
330
1F
100
AcDbEntity
  8
0
  6
Continuous
 62
     7
370
    15
100
AcDbLine
 10
204.9634956747
 20
430.2130238195
 30
0.0
 11
204.9634956747
 21
440.2130217334
 31
0.0
  0
LINE
  5
86
330
1F
100
AcDbEntity
  8
0
  6
Continuous
 62
     7
370
    15
100
AcDbLine
 10
194.9635052115
 20
430.2130238195
 30
0.0
 11
204.9634956747
 21
430.2130238195
 31
0.0
  0
LINE
  5
87
330
1F
100
AcDbEntity
  8
0
  6
Continuous
 62
     7
370
    15
100
AcDbLine
 10
194.9635052115
 20
440.2130217334
 30
0.0
 11
194.9635052115
 21
430.2130238195
 31
0.0
  0
CIRCLE
  5
88
330
1F
100
AcDbEntity
  8
0
  6
Continuous
 62
     7
370
    15
100
AcDbCircle
 10
199.963493043
 20
415.2130268862
 30
0.0
 40
2.0
  0
LINE
  5
89
330
1F
100
AcDbEntity
  8
0
  6
Continuous
 62
     7
370
    15
100
AcDbLine
 10
204.9634956747
 20
420.2130259057
 30
0.0
 11
194.9635052115
 21
420.2130259057
 31
0.0
  0
LINE
  5
8A
330
1F
100
AcDbEntity
  8
0
  6
Continuous
 62
     7
370
    15
100
AcDbLine
 10
204.9634956747
 20
410.2130279918
 30
0.0
 11
204.9634956747
 21
420.2130259057
 31
0.0
  0
LINE
  5
8B
330
1F
100
AcDbEntity
  8
0
  6
Continuous
 62
     7
370
    15
100
AcDbLine
 10
194.9635052115
 20
410.2130279918
 30
0.0
 11
204.9634956747
 21
410.2130279918
 31
0.0
  0
LINE
  5
8C
330
1F
100
AcDbEntity
  8
0
  6
Continuous
 62
     7
370
    15
100
AcDbLine
 10
194.9635052115
 20
420.2130259057
 30
0.0
 11
194.9635052115
 21
410.2130279918
 31
0.0
  0
CIRCLE
  5
8D
330
1F
100
AcDbEntity
  8
0
  6
Continuous
 62
     7
370
    15
100
AcDbCircle
 10
199.963493043
 20
425.2130268862
 30
0.0
 40
2.0
  0
LINE
  5
8E
330
1F
100
AcDbEntity
  8
0
  6
Continuous
 62
     7
370
    15
100
AcDbLine
 10
194.9635052115
 20
420.2130259057
 30
0.0
 11
194.9635052115
 21
430.2130238195
 31
0.0
  0
LINE
  5
8F
330
1F
100
AcDbEntity
  8
0
  6
Continuous
 62
     7
370
    15
100
AcDbLine
 10
204.9634956747
 20
430.2130238195
 30
0.0
 11
204.9634956747
 21
420.2130259057
 31
0.0
  0
CIRCLE
  5
90
330
1F
100
AcDbEntity
  8
0
  6
Continuous
 62
     7
370
    15
100
AcDbCircle
 10
199.963493043
 20
405.2130268862
 30
0.0
 40
2.0
  0
LINE
  5
91
330
1F
100
AcDbEntity
  8
0
  6
Continuous
 62
     7
370
    15
100
AcDbLine
 10
204.9634956747
 20
400.213030078
 30
0.0
 11
194.9635052115
 21
400.213030078
 31
0.0
  0
LINE
  5
92
330
1F
100
AcDbEntity
  8
0
  6
Continuous
 62
     7
370
    15
100
AcDbLine
 10
194.9635052115
 20
400.213030078
 30
0.0
 11
194.9635052115
 21
410.2130279918
 31
0.0
  0
LINE
  5
93
330
1F
100
AcDbEntity
  8
0
  6
Continuous
 62
     7
370
    15
100
AcDbLine
 10
204.9634956747
 20
410.2130279918
 30
0.0
 11
204.9634956747
 21
400.213030078
 31
0.0
  0
CIRCLE
  5
94
330
1F
100
AcDbEntity
  8
0
  6
Continuous
 62
     7
370
    15
100
AcDbCircle
 10
199.963493043
 20
395.2130268862
 30
0.0
 40
2.0
  0
LINE
  5
95
330
1F
100
AcDbEntity
  8
0
  6
Continuous
 62
     7
370
    15
100
AcDbLine
 10
194.9635052115
 20
390.2130247136
 30
0.0
 11
194.9635052115
 21
400.213030078
 31
0.0
  0
LINE
  5
96
330
1F
100
AcDbEntity
  8
0
  6
Continuous
 62
     7
370
    15
100
AcDbLine
 10
204.9634956747
 20
400.213030078
 30
0.0
 11
204.9634956747
 21
390.2130247136
 31
0.0
  0
LINE
  5
97
330
1F
100
AcDbEntity
  8
0
  6
Continuous
 62
     7
370
    15
100
AcDbLine
 10
204.9634956747
 20
390.2130247136
 30
0.0
 11
194.9635052115
 21
390.2130247136
 31
0.0
  0
CIRCLE
  5
98
330
1F
100
AcDbEntity
  8
0
  6
Continuous
 62
     7
370
    15
100
AcDbCircle
 10
199.963493043
 20
385.2130268862
 30
0.0
 40
2.0
  0
LINE
  5
99
330
1F
100
AcDbEntity
  8
0
  6
Continuous
 62
     7
370
    15
100
AcDbLine
 10
204.9634956747
 20
380.2130267997
 30
0.0
 11
204.9634956747
 21
390.2130247136
 31
0.0
  0
LINE
  5
9A
330
1F
100
AcDbEntity
  8
0
  6
Continuous
 62
     7
370
    15
100
AcDbLine
 10
194.9635052115
 20
380.2130267997
 30
0.0
 11
204.9634956747
 21
380.2130267997
 31
0.0
  0
LINE
  5
9B
330
1F
100
AcDbEntity
  8
0
  6
Continuous
 62
     7
370
    15
100
AcDbLine
 10
194.9635052115
 20
390.2130247136
 30
0.0
 11
194.9635052115
 21
380.2130267997
 31
0.0
  0
SPLINE
  5
9C
330
1F
100
AcDbEntity
  8
0
  6
Continuous
 62
     7
370
    15
100
AcDbSpline
210
0.0
220
0.0
230
1.0
 70
     8
 71
     3
 72
     9
 73
     5
 74
     0
 42
0.000000001
 43
0.00000001
 40
0.0
 40
0.0
 40
0.0
 40
0.0
 40
0.5594649180851705
 40
1.0
 40
1.0
 40
1.0
 40
1.0
 10
237.4254667192623
 20
664.7844583769518
 30
0.0
 10
237.4136753789909
 20
664.920178126507
 30
0.0
 10
237.3925992759319
 20
665.1627666162732
 30
0.0
 10
237.2489774767296
 20
665.3576527537123
 30
0.0
 10
237.1857070356533
 20
665.4435069342333
 30
0.0
  0
SPLINE
  5
9D
330
1F
100
AcDbEntity
  8
0
  6
Continuous
 62
     7
370
    15
100
AcDbSpline
210
0.0
220
0.0
230
1.0
 70
     8
 71
     3
 72
    11
 73
     7
 74
     0
 42
0.000000001
 43
0.00000001
 40
0.0
 40
0.0
 40
0.0
 40
0.0
 40
0.2801474797244582
 40
0.5591995016906086
 40
0.779592262647862
 40
1.0
 40
1.0
 40
1.0
 40
1.0
 10
236.6626464754268
 20
663.8063759585099
 30
0.0
 10
236.7837793971824
 20
663.8447882251011
 30
0.0
 10
237.0255715758972
 20
663.9214625551996
 30
0.0
 10
237.2690217094932
 20
664.1901402563946
 30
0.0
 10
237.4021450189722
 20
664.4879931454119
 30
0.0
 10
237.4176926430865
 20
664.6856343947884
 30
0.0
 10
237.4254667192623
 20
664.7844583769518
 30
0.0
  0
LINE
  5
9E
330
1F
100
AcDbEntity
  8
0
  6
Continuous
 62
     7
370
    15
100
AcDbLine
 10
236.6626464754
 20
665.7477886458
 30
0.0
 11
236.6626464754
 21
663.8063759585
 31
0.0
  0
SPLINE
  5
9F
330
1F
100
AcDbEntity
  8
0
  6
Continuous
 62
     7
370
    15
100
AcDbSpline
210
0.0
220
0.0
230
1.0
 70
     8
 71
     3
 72
     9
 73
     5
 74
     0
 42
0.000000001
 43
0.00000001
 40
0.0
 40
0.0
 40
0.0
 40
0.0
 40
0.5588064260905091
 40
1.0
 40
1.0
 40
1.0
 40
1.0
 10
237.1857070356533
 20
665.4435069342333
 30
0.0
 10
237.0992878260344
 20
665.5198434453675
 30
0.0
 10
236.9446381914132
 20
665.6564498041532
 30
0.0
 10
236.7489727921973
 20
665.7198270237801
 30
0.0
 10
236.6626464754268
 20
665.7477886458115
 30
0.0
  0
LINE
  5
A0
330
1F
100
AcDbEntity
  8
0
  6
Continuous
 62
     7
370
    15
100
AcDbLine
 10
242.8951465517
 20
662.953820922
 30
0.0
 11
241.9703506857
 21
662.953820922
 31
0.0
  0
SPLINE
  5
A1
330
1F
100
AcDbEntity
  8
0
  6
Continuous
 62
     7
370
    15
100
AcDbSpline
210
0.0
220
0.0
230
1.0
 70
     8
 71
     3
 72
     9
 73
     5
 74
     0
 42
0.000000001
 43
0.00000001
 40
0.0
 40
0.0
 40
0.0
 40
0.0
 40
0.559637525968425
 40
1.0
 40
1.0
 40
1.0
 40
1.0
 10
243.5815238386318
 20
662.90545175273
 30
0.0
 10
243.4540355841003
 20
662.9229832574965
 30
0.0
 10
243.226230534196
 20
662.9543097928934
 30
0.0
 10
242.9963689622345
 20
662.9539703846285
 30
0.0
 10
242.8951465517208
 20
662.9538209219652
 30
0.0
  0
SPLINE
  5
A2
330
1F
100
AcDbEntity
  8
0
  6
Continuous
 62
     7
370
    15
100
AcDbSpline
210
0.0
220
0.0
230
1.0
 70
     8
 71
     3
 72
    11
 73
     7
 74
     0
 42
0.000000001
 43
0.00000001
 40
0.0
 40
0.0
 40
0.0
 40
0.0
 40
0.2795467264569563
 40
0.5593707245825938
 40
0.7796968896475591
 40
1.0
 40
1.0
 40
1.0
 40
1.0
 10
244.2588114172146
 20
662.0360584040361
 30
0.0
 10
244.2473285271522
 20
662.1469103796862
 30
0.0
 10
244.2243513575895
 20
662.3687242808065
 30
0.0
 10
244.044109437474
 20
662.6283865174382
 30
0.0
 10
243.8282876572202
 20
662.8175608523119
 30
0.0
 10
243.6637755756141
 20
662.8761558078637
 30
0.0
 10
243.5815238386318
 20
662.90545175273
 30
0.0
  0
SPLINE
  5
A3
330
1F
100
AcDbEntity
  8
0
  6
Continuous
 62
     7
370
    15
100
AcDbSpline
210
0.0
220
0.0
230
1.0
 70
     8
 71
     3
 72
    10
 73
     6
 74
     0
 42
0.000000001
 43
0.00000001
 40
0.0
 40
0.0
 40
0.0
 40
0.0
 40
0.2812984350434073
 40
0.5614793000526431
 40
1.0
 40
1.0
 40
1.0
 40
1.0
 10
243.755420389764
 20
661.3748938818651
 30
0.0
 10
243.8363977106253
 20
661.4009848826072
 30
0.0
 10
243.9980306376993
 20
661.4530632272028
 30
0.0
 10
244.2229998722232
 20
661.6787441433038
 30
0.0
 10
244.24524090077
 20
661.9006568442238
 30
0.0
 10
244.2588114172145
 20
662.0360584040361
 30
0.0
  0
LINE
  5
A4
330
1F
100
AcDbEntity
  8
0
  6
Continuous
 62
     7
370
    15
100
AcDbLine
 10
241.9703506857
 20
661.3384456416
 30
0.0
 11
243.1734704405
 21
661.3384456416
 31
0.0
  0
LINE
  5
A5
330
1F
100
AcDbEntity
  8
0
  6
Continuous
 62
     7
370
    15
100
AcDbLine
 10
241.9703506857
 20
661.0243291636
 30
0.0
 11
241.9703506857
 21
661.3384456416
 31
0.0
  0
LINE
  5
A6
330
1F
100
AcDbEntity
  8
0
  6
Continuous
 62
     7
370
    15
100
AcDbLine
 10
243.2765566736
 20
661.0243291636
 30
0.0
 11
241.9703506857
 21
661.0243291636
 31
0.0
  0
SPLINE
  5
A7
330
1F
100
AcDbEntity
  8
0
  6
Continuous
 62
     7
370
    15
100
AcDbSpline
210
0.0
220
0.0
230
1.0
 70
     8
 71
     3
 72
    11
 73
     7
 74
     0
 42
0.000000001
 43
0.00000001
 40
0.0
 40
0.0
 40
0.0
 40
0.0
 40
0.1870174057333336
 40
0.3738844004347627
 40
0.5605948807961028
 40
0.9999999999999999
 40
0.9999999999999999
 40
0.9999999999999999
 40
0.9999999999999999
 10
244.5729278951809
 20
661.9806558867174
 30
0.0
 10
244.5628933567484
 20
661.8659403887223
 30
0.0
 10
244.5428323502835
 20
661.636601654072
 30
0.0
 10
244.3584656406764
 20
661.3357131314689
 30
0.0
 10
243.9503155359772
 20
661.0293544113381
 30
0.0
 10
243.554404948201
 20
661.0264015020861
 30
0.0
 10
243.2765566736385
 20
661.0243291636186
 30
0.0
  0
SPLINE
  5
A8
330
1F
100
AcDbEntity
  8
0
  6
Continuous
 62
     7
370
    15
100
AcDbSpline
210
0.0
220
0.0
230
1.0
 70
     8
 71
     3
 72
     9
 73
     5
 74
     0
 42
0.000000001
 43
0.00000001
 40
0.0
 40
0.0
 40
0.0
 40
0.0
 40
0.5599380185536299
 40
1.0
 40
1.0
 40
1.0
 40
1.0
 10
244.0449797540828
 20
662.9538209219652
 30
0.0
 10
244.2090837897843
 20
662.8052806630756
 30
0.0
 10
244.502159148599
 20
662.5400008392957
 30
0.0
 10
244.5513019962636
 20
662.1515835629667
 30
0.0
 10
244.5729278951809
 20
661.9806558867174
 30
0.0
  0
LINE
  5
A9
330
1F
100
AcDbEntity
  8
0
  6
Continuous
 62
     7
370
    15
100
AcDbLine
 10
245.560100022
 20
662.953820922
 30
0.0
 11
244.0449797541
 21
662.953820922
 31
0.0
  0
LINE
  5
AA
330
1F
100
AcDbEntity
  8
0
  6
Continuous
 62
     7
370
    15
100
AcDbLine
 10
241.9703506857
 20
663.2679075976
 30
0.0
 11
245.560100022
 21
663.2679075976
 31
0.0
  0
LINE
  5
AB
330
1F
100
AcDbEntity
  8
0
  6
Continuous
 62
     7
370
    15
100
AcDbLine
 10
241.9703506857
 20
662.953820922
 30
0.0
 11
241.9703506857
 21
663.2679075976
 31
0.0
  0
SPLINE
  5
AC
330
1F
100
AcDbEntity
  8
0
  6
Continuous
 62
     7
370
    15
100
AcDbSpline
210
0.0
220
0.0
230
1.0
 70
     8
 71
     3
 72
    10
 73
     6
 74
     0
 42
0.000000001
 43
0.00000001
 40
0.0
 40
0.0
 40
0.0
 40
0.0
 40
0.5601189886685625
 40
0.7802672015684076
 40
1.0
 40
1.0
 40
1.0
 40
1.0
 10
237.1239864259882
 20
678.4962982912737
 30
0.0
 10
236.9615019153615
 20
678.2769176875665
 30
0.0
 10
236.7351547695412
 20
677.9713121051889
 30
0.0
 10
236.3138906436599
 20
677.7111008319408
 30
0.0
 10
236.1008820992717
 20
677.6848636432109
 30
0.0
 10
235.9944784074945
 20
677.6717574377732
 30
0.0
  0
SPLINE
  5
AD
330
1F
100
AcDbEntity
  8
0
  6
Continuous
 62
     7
370
    15
100
AcDbSpline
210
0.0
220
0.0
230
1.0
 70
     8
 71
     3
 72
     9
 73
     5
 74
     0
 42
0.000000001
 43
0.00000001
 40
0.0
 40
0.0
 40
0.0
 40
0.0
 40
0.5599026099792684
 40
1.0
 40
1.0
 40
1.0
 40
1.0
 10
237.4724649816675
 20
678.9667279501634
 30
0.0
 10
237.4054431043374
 20
678.8803935028831
 30
0.0
 10
237.28574036294
 20
678.7261980307752
 30
0.0
 10
237.1734188365816
 20
678.5665562307868
 30
0.0
 10
237.1239864259882
 20
678.4962982912737
 30
0.0
  0
SPLINE
  5
AE
330
1F
100
AcDbEntity
  8
0
  6
Continuous
 62
     7
370
    15
100
AcDbSpline
210
0.0
220
0.0
230
1.0
 70
     8
 71
     3
 72
    10
 73
     6
 74
     0
 42
0.000000001
 43
0.00000001
 40
0.0
 40
0.0
 40
0.0
 40
0.0
 40
0.2799614487568206
 40
0.559772931935997
 40
1.0
 40
1.0
 40
1.0
 40
1.0
 10
237.9246854215784
 20
679.1973979254442
 30
0.0
 10
237.8758366871955
 20
679.1932991163878
 30
0.0
 10
237.778165384992
 20
679.1851036938643
 30
0.0
 10
237.6171493445858
 20
679.1092910486673
 30
0.0
 10
237.5273610087688
 20
679.0208191287902
 30
0.0
 10
237.4724649816675
 20
678.9667279501634
 30
0.0
  0
SPLINE
  5
AF
330
1F
100
AcDbEntity
  8
0
  6
Continuous
 62
     7
370
    15
100
AcDbSpline
210
0.0
220
0.0
230
1.0
 70
     8
 71
     3
 72
    10
 73
     6
 74
     0
 42
0.000000001
 43
0.00000001
 40
0.0
 40
0.0
 40
0.0
 40
0.0
 40
0.5598124947483651
 40
0.7798702469061908
 40
0.9999999999999999
 40
0.9999999999999999
 40
0.9999999999999999
 40
0.9999999999999999
 10
237.9190825849695
 20
678.0005962629991
 30
0.0
 10
238.0459550536442
 20
678.0995341073542
 30
0.0
 10
238.2227000609442
 20
678.237363616037
 30
0.0
 10
238.3534856000297
 20
678.4963880726332
 30
0.0
 10
238.3630189141181
 20
678.6215706199623
 30
0.0
 10
238.3677863508387
 20
678.6841721316057
 30
0.0
  0
LINE
  5
B0
330
1F
100
AcDbEntity
  8
0
  6
Continuous
 62
     7
370
    15
100
AcDbLine
 10
238.1343149573
 20
677.7166397353
 30
0.0
 11
237.919082585
 21
678.000596263
 31
0.0
  0
SPLINE
  5
B1
330
1F
100
AcDbEntity
  8
0
  6
Continuous
 62
     7
370
    15
100
AcDbSpline
210
0.0
220
0.0
230
1.0
 70
     8
 71
     3
 72
    10
 73
     6
 74
     0
 42
0.000000001
 43
0.00000001
 40
0.0
 40
0.0
 40
0.0
 40
0.0
 40
0.2797515348545789
 40
0.5595007237377784
 40
1.0
 40
1.0
 40
1.0
 40
1.0
 10
238.7267553239984
 20
678.6491246004778
 30
0.0
 10
238.7162382784686
 20
678.5413617759275
 30
0.0
 10
238.695204275604
 20
678.3258370305163
 30
0.0
 10
238.4892230535376
 20
677.988516004132
 30
0.0
 10
238.2690012064493
 20
677.8198157272689
 30
0.0
 10
238.1343149572535
 20
677.7166397352892
 30
0.0
  0
SPLINE
  5
B2
330
1F
100
AcDbEntity
  8
0
  6
Continuous
 62
     7
370
    15
100
AcDbSpline
210
0.0
220
0.0
230
1.0
 70
     8
 71
     3
 72
    11
 73
     7
 74
     0
 42
0.000000001
 43
0.00000001
 40
0.0
 40
0.0
 40
0.0
 40
0.0
 40
0.2795539754794295
 40
0.5587991009270457
 40
0.7793824133088404
 40
1.0
 40
1.0
 40
1.0
 40
1.0
 10
237.9099630743189
 20
679.5115144034105
 30
0.0
 10
238.0342373602934
 20
679.4963591859535
 30
0.0
 10
238.2826486345449
 20
679.4660654944583
 30
0.0
 10
238.5524121424974
 20
679.2269344812546
 30
0.0
 10
238.7018165775692
 20
678.9411818667917
 30
0.0
 10
238.7184419780121
 20
678.7464820642774
 30
0.0
 10
238.7267553239984
 20
678.6491246004778
 30
0.0
  0
SPLINE
  5
B3
330
1F
100
AcDbEntity
  8
0
  6
Continuous
 62
     7
370
    15
100
AcDbSpline
210
0.0
220
0.0
230
1.0
 70
     8
 71
     3
 72
     9
 73
     5
 74
     0
 42
0.000000001
 43
0.00000001
 40
0.0
 40
0.0
 40
0.0
 40
0.0
 40
0.5598571416555056
 40
1.0
 40
1.0
 40
1.0
 40
1.0
 10
237.3770975500268
 20
679.3158919592577
 30
0.0
 10
237.4678902705936
 20
679.3775749991399
 30
0.0
 10
237.6300614993076
 20
679.4877513911028
 30
0.0
 10
237.8244183114735
 20
679.5042518460194
 30
0.0
 10
237.9099630743189
 20
679.5115144034105
 30
0.0
  0
SPLINE
  5
B4
330
1F
100
AcDbEntity
  8
0
  6
Continuous
 62
     7
370
    15
100
AcDbSpline
210
0.0
220
0.0
230
1.0
 70
     8
 71
     3
 72
     9
 73
     5
 74
     0
 42
0.000000001
 43
0.00000001
 40
0.0
 40
0.0
 40
0.0
 40
0.0
 40
0.5604200943035951
 40
1.0
 40
1.0
 40
1.0
 40
1.0
 10
236.9010352522058
 20
678.7423760672289
 30
0.0
 10
236.9816847289361
 20
678.8564792671556
 30
0.0
 10
237.1255936957095
 20
679.0600822447906
 30
0.0
 10
237.3003001175775
 20
679.2377797199046
 30
0.0
 10
237.3770975500269
 20
679.3158919592577
 30
0.0
  0
SPLINE
  5
B5
330
1F
100
AcDbEntity
  8
0
  6
Continuous
 62
     7
370
    15
100
AcDbSpline
210
0.0
220
0.0
230
1.0
 70
     8
 71
     3
 72
     9
 73
     5
 74
     0
 42
0.000000001
 43
0.00000001
 40
0.0
 40
0.0
 40
0.0
 40
0.0
 40
0.5595104631968731
 40
1.0
 40
1.0
 40
1.0
 40
1.0
 10
236.3429569631739
 20
678.1113714953141
 30
0.0
 10
236.4583394414483
 20
678.2192205066423
 30
0.0
 10
236.6645598535122
 20
678.4119765289549
 30
0.0
 10
236.8287230720931
 20
678.6413426783316
 30
0.0
 10
236.9010352522058
 20
678.7423760672289
 30
0.0
  0
SPLINE
  5
B6
330
1F
100
AcDbEntity
  8
0
  6
Continuous
 62
     7
370
    15
100
AcDbSpline
210
0.0
220
0.0
230
1.0
 70
     8
 71
     3
 72
     9
 73
     5
 74
     0
 42
0.000000001
 43
0.00000001
 40
0.0
 40
0.0
 40
0.0
 40
0.0
 40
0.5589473393803968
 40
1.0
 40
1.0
 40
1.0
 40
1.0
 10
235.9993957906885
 20
677.9858739157395
 30
0.0
 10
236.0691266057474
 20
677.9944760216714
 30
0.0
 10
236.1938804244813
 20
678.0098658541759
 30
0.0
 10
236.2973301753242
 20
678.080304391165
 30
0.0
 10
236.3429569631739
 20
678.1113714953141
 30
0.0
  0
SPLINE
  5
B7
330
1F
100
AcDbEntity
  8
0
  6
Continuous
 62
     7
370
    15
100
AcDbSpline
210
0.0
220
0.0
230
1.0
 70
     8
 71
     3
 72
    11
 73
     7
 74
     0
 42
0.000000001
 43
0.00000001
 40
0.0
 40
0.0
 40
0.0
 40
0.0
 40
0.2802778672861908
 40
0.5601498588468384
 40
0.7801722683552529
 40
1.0
 40
1.0
 40
1.0
 40
1.0
 10
235.4062401682062
 20
678.6715657492356
 30
0.0
 10
235.4156813964264
 20
678.577478251756
 30
0.0
 10
235.4345501808445
 20
678.3894395066965
 30
0.0
 10
235.5759930317711
 20
678.1595648949392
 30
0.0
 10
235.7776535515297
 20
678.0135667475098
 30
0.0
 10
235.9255035237896
 20
677.9951021355146
 30
0.0
 10
235.9993957906885
 20
677.9858739157395
 30
0.0
  0
SPLINE
  5
B8
330
1F
100
AcDbEntity
  8
0
  6
Continuous
 62
     7
370
    15
100
AcDbSpline
210
0.0
220
0.0
230
1.0
 70
     8
 71
     3
 72
    10
 73
     6
 74
     0
 42
0.000000001
 43
0.00000001
 40
0.0
 40
0.0
 40
0.0
 40
0.0
 40
0.5593385110490406
 40
0.7797902494204783
 40
1.0
 40
1.0
 40
1.0
 40
1.0
 10
235.9895908266229
 20
679.43998882968
 30
0.0
 10
235.8297271562265
 20
679.3359765939326
 30
0.0
 10
235.6068565171605
 20
679.1909700806066
 30
0.0
 10
235.4294542385733
 20
678.8944256269989
 30
0.0
 10
235.41397535827
 20
678.7458251740084
 30
0.0
 10
235.4062401682062
 20
678.6715657492356
 30
0.0
  0
LINE
  5
B9
330
1F
100
AcDbEntity
  8
0
  6
Continuous
 62
     7
370
    15
100
AcDbLine
 10
235.8122074038
 20
679.7358662863
 30
0.0
 11
235.9895908266
 21
679.4399888297
 31
0.0
  0
SPLINE
  5
BA
330
1F
100
AcDbEntity
  8
0
  6
Continuous
 62
     7
370
    15
100
AcDbSpline
210
0.0
220
0.0
230
1.0
 70
     8
 71
     3
 72
    10
 73
     6
 74
     0
 42
0.000000001
 43
0.00000001
 40
0.0
 40
0.0
 40
0.0
 40
0.0
 40
0.2798798872863866
 40
0.5596694906516426
 40
1.0
 40
1.0
 40
1.0
 40
1.0
 10
235.0472711950464
 20
678.6715657492356
 30
0.0
 10
235.0602423823335
 20
678.8010614720432
 30
0.0
 10
235.0861805726497
 20
679.0600111448047
 30
0.0
 10
235.3499875023161
 20
679.4589287729023
 30
0.0
 10
235.6368190496533
 20
679.6307829385199
 30
0.0
 10
235.8122074037714
 20
679.735866286345
 30
0.0
  0
SPLINE
  5
BB
330
1F
100
AcDbEntity
  8
0
  6
Continuous
 62
     7
370
    15
100
AcDbSpline
210
0.0
220
0.0
230
1.0
 70
     8
 71
     3
 72
    11
 73
     7
 74
     0
 42
0.000000001
 43
0.00000001
 40
0.0
 40
0.0
 40
0.0
 40
0.0
 40
0.2791806561301915
 40
0.559090168248072
 40
0.7794465536300212
 40
1.0
 40
1.0
 40
1.0
 40
1.0
 10
235.9944784074945
 20
677.6717574377732
 30
0.0
 10
235.8513249384524
 20
677.6913254346359
 30
0.0
 10
235.5646442700943
 20
677.7305125144643
 30
0.0
 10
235.2596676597686
 20
678.0102956253761
 30
0.0
 10
235.0746094664491
 20
678.333537743567
 30
0.0
 10
235.0563866670236
 20
678.5588561792781
 30
0.0
 10
235.0472711950464
 20
678.6715657492356
 30
0.0
  0
SPLINE
  5
BC
330
1F
100
AcDbEntity
  8
0
  6
Continuous
 62
     7
370
    15
100
AcDbSpline
210
0.0
220
0.0
230
1.0
 70
     8
 71
     3
 72
     9
 73
     5
 74
     0
 42
0.000000001
 43
0.00000001
 40
0.0
 40
0.0
 40
0.0
 40
0.0
 40
0.5590625767379704
 40
1.0
 40
1.0
 40
1.0
 40
1.0
 10
237.7395831972285
 20
675.789949395247
 30
0.0
 10
237.7134526380466
 20
675.5591154261047
 30
0.0
 10
237.6667126839356
 20
675.1462207364099
 30
0.0
 10
237.3576967221379
 20
674.874781340473
 30
0.0
 10
237.221440020196
 20
674.7550935526567
 30
0.0
  0
SPLINE
  5
BD
330
1F
100
AcDbEntity
  8
0
  6
Continuous
 62
     7
370
    15
100
AcDbSpline
210
0.0
220
0.0
230
1.0
 70
     8
 71
     3
 72
    11
 73
     7
 74
     0
 42
0.000000001
 43
0.00000001
 40
0.0
 40
0.0
 40
0.0
 40
0.0
 40
0.2794053145352012
 40
0.5591910115277885
 40
0.7795432650059505
 40
1.0
 40
1.0
 40
1.0
 40
1.0
 10
236.4228867918177
 20
677.1332890768723
 30
0.0
 10
236.6188811076552
 20
677.1089917560864
 30
0.0
 10
237.0111365660352
 20
677.0603640361367
 30
0.0
 10
237.4377417139317
 20
676.6898480477981
 30
0.0
 10
237.7000604704335
 20
676.2521660776297
 30
0.0
 10
237.7264068734027
 20
675.9440459664768
 30
0.0
 10
237.7395831972285
 20
675.789949395247
 30
0.0
  0
SPLINE
  5
BE
330
1F
100
AcDbEntity
  8
0
  6
Continuous
 62
     7
370
    15
100
AcDbSpline
210
0.0
220
0.0
230
1.0
 70
     8
 71
     3
 72
    11
 73
     7
 74
     0
 42
0.000000001
 43
0.00000001
 40
0.0
 40
0.0
 40
0.0
 40
0.0
 40
0.279569624845375
 40
0.5593270903619855
 40
0.7795826419482698
 40
1.0
 40
1.0
 40
1.0
 40
1.0
 10
235.0921534925623
 20
675.7997841616349
 30
0.0
 10
235.115149186374
 20
675.9963494324393
 30
0.0
 10
235.1611560246264
 20
676.3896120447348
 30
0.0
 10
235.5229217951246
 20
676.8246920187806
 30
0.0
 10
235.9593355212291
 20
677.093503480788
 30
0.0
 10
236.2683318824832
 20
677.1200239655766
 30
0.0
 10
236.4228867918177
 20
677.1332890768723
 30
0.0
  0
SPLINE
  5
BF
330
1F
100
AcDbEntity
  8
0
  6
Continuous
 62
     7
370
    15
100
AcDbSpline
210
0.0
220
0.0
230
1.0
 70
     8
 71
     3
 72
     9
 73
     5
 74
     0
 42
0.000000001
 43
0.00000001
 40
0.0
 40
0.0
 40
0.0
 40
0.0
 40
0.5593663771256862
 40
1.0
 40
1.0
 40
1.0
 40
1.0
 10
235.6004619032069
 20
674.7550935526566
 30
0.0
 10
235.4390142923384
 20
674.9197082108935
 30
0.0
 10
235.1503884158634
 20
675.2139959353055
 30
0.0
 10
235.1099652837245
 20
675.620614396119
 30
0.0
 10
235.0921534925623
 20
675.7997841616349
 30
0.0
  0
LINE
  5
C0
330
1F
100
AcDbEntity
  8
0
  6
Continuous
 62
     7
370
    15
100
AcDbLine
 10
234.1947161585
 20
674.7550935527
 30
0.0
 11
235.6004619032
 21
674.7550935527
 31
0.0
  0
LINE
  5
C1
330
1F
100
AcDbEntity
  8
0
  6
Continuous
 62
     7
370
    15
100
AcDbLine
 10
234.1947161585
 20
674.441006877
 30
0.0
 11
234.1947161585
 21
674.7550935527
 31
0.0
  0
LINE
  5
C2
330
1F
100
AcDbEntity
  8
0
  6
Continuous
 62
     7
370
    15
100
AcDbLine
 10
237.6947008997
 20
674.441006877
 30
0.0
 11
234.1947161585
 21
674.441006877
 31
0.0
  0
LINE
  5
C3
330
1F
100
AcDbEntity
  8
0
  6
Continuous
 62
     7
370
    15
100
AcDbLine
 10
237.6947008997
 20
674.7550935527
 30
0.0
 11
237.6947008997
 21
674.441006877
 31
0.0
  0
LINE
  5
C4
330
1F
100
AcDbEntity
  8
0
  6
Continuous
 62
     7
370
    15
100
AcDbLine
 10
237.2214400202
 20
674.7550935527
 30
0.0
 11
237.6947008997
 21
674.7550935527
 31
0.0
  0
LINE
  5
C5
330
1F
100
AcDbEntity
  8
0
  6
Continuous
 62
     7
370
    15
100
AcDbLine
 10
235.9965943724
 20
667.216625907
 30
0.0
 11
235.1370059878
 21
667.216625907
 31
0.0
  0
SPLINE
  5
C6
330
1F
100
AcDbEntity
  8
0
  6
Continuous
 62
     7
370
    15
100
AcDbSpline
210
0.0
220
0.0
230
1.0
 70
     8
 71
     3
 72
     9
 73
     5
 74
     0
 42
0.000000001
 43
0.00000001
 40
0.0
 40
0.0
 40
0.0
 40
0.0
 40
0.5596174681823151
 40
1.0
 40
1.0
 40
1.0
 40
1.0
 10
236.8743919759914
 20
667.1605379362779
 30
0.0
 10
236.7112490139197
 20
667.1812322726123
 30
0.0
 10
236.4197231567987
 20
667.2182117050121
 30
0.0
 10
236.1259617600393
 20
667.2171107488663
 30
0.0
 10
235.9965943723842
 20
667.2166259070115
 30
0.0
  0
SPLINE
  5
C7
330
1F
100
AcDbEntity
  8
0
  6
Continuous
 62
     7
370
    15
100
AcDbSpline
210
0.0
220
0.0
230
1.0
 70
     8
 71
     3
 72
    10
 73
     6
 74
     0
 42
0.000000001
 43
0.00000001
 40
0.0
 40
0.0
 40
0.0
 40
0.0
 40
0.2783269493843367
 40
0.5587708725373487
 40
1.0
 40
1.0
 40
1.0
 40
1.0
 10
237.4254667192622
 20
666.6522295256334
 30
0.0
 10
237.4093764136676
 20
666.7261865330524
 30
0.0
 10
237.3770734185158
 20
666.8746630699355
 30
0.0
 10
237.1710860151979
 20
667.0651966690333
 30
0.0
 10
236.9869638281301
 20
667.1243634884607
 30
0.0
 10
236.8743919759913
 20
667.1605379362779
 30
0.0
  0
SPLINE
  5
C8
330
1F
100
AcDbEntity
  8
0
  6
Continuous
 62
     7
370
    15
100
AcDbSpline
210
0.0
220
0.0
230
1.0
 70
     8
 71
     3
 72
     9
 73
     5
 74
     0
 42
0.000000001
 43
0.00000001
 40
0.0
 40
0.0
 40
0.0
 40
0.0
 40
0.5603829261949749
 40
1.0
 40
1.0
 40
1.0
 40
1.0
 10
237.3798989683314
 20
666.4916844149309
 30
0.0
 10
237.3932282343042
 20
666.5203756088041
 30
0.0
 10
237.4170142301827
 20
666.5715748736851
 30
0.0
 10
237.4228855755796
 20
666.6275999468909
 30
0.0
 10
237.4254667192622
 20
666.6522295256334
 30
0.0
  0
LINE
  5
C9
330
1F
100
AcDbEntity
  8
0
  6
Continuous
 62
     7
370
    15
100
AcDbLine
 10
237.6519345671
 20
666.319188573
 30
0.0
 11
237.3798989683
 21
666.4916844149
 31
0.0
  0
SPLINE
  5
CA
330
1F
100
AcDbEntity
  8
0
  6
Continuous
 62
     7
370
    15
100
AcDbSpline
210
0.0
220
0.0
230
1.0
 70
     8
 71
     3
 72
     9
 73
     5
 74
     0
 42
0.000000001
 43
0.00000001
 40
0.0
 40
0.0
 40
0.0
 40
0.0
 40
0.5591812577344677
 40
1.0
 40
1.0
 40
1.0
 40
1.0
 10
237.7395831972285
 20
666.592624880858
 30
0.0
 10
237.7331095541951
 20
666.5383216064424
 30
0.0
 10
237.7215325513111
 20
666.4412094917847
 30
0.0
 10
237.6732280823427
 20
666.3565208940768
 30
0.0
 10
237.6519345670863
 20
666.3191885729509
 30
0.0
  0
SPLINE
  5
CB
330
1F
100
AcDbEntity
  8
0
  6
Continuous
 62
     7
370
    15
100
AcDbSpline
210
0.0
220
0.0
230
1.0
 70
     8
 71
     3
 72
    10
 73
     6
 74
     0
 42
0.000000001
 43
0.00000001
 40
0.0
 40
0.0
 40
0.0
 40
0.0
 40
0.5588012498331079
 40
0.7794782502235199
 40
0.9999999999999999
 40
0.9999999999999999
 40
0.9999999999999999
 40
0.9999999999999999
 10
237.3182081609889
 20
667.2166259070116
 30
0.0
 10
237.4383490494348
 20
667.1287593178162
 30
0.0
 10
237.6059349478812
 20
667.0061932082742
 30
0.0
 10
237.7240132987702
 20
666.7657747900006
 30
0.0
 10
237.734394448728
 20
666.6503279759578
 30
0.0
 10
237.7395831972285
 20
666.592624880858
 30
0.0
  0
LINE
  5
CC
330
1F
100
AcDbEntity
  8
0
  6
Continuous
 62
     7
370
    15
100
AcDbLine
 10
237.6947008997
 20
667.216625907
 30
0.0
 11
237.318208161
 21
667.216625907
 31
0.0
  0
LINE
  5
CD
330
1F
100
AcDbEntity
  8
0
  6
Continuous
 62
     7
370
    15
100
AcDbLine
 10
237.6947008997
 20
667.530742385
 30
0.0
 11
237.6947008997
 21
667.216625907
 31
0.0
  0
LINE
  5
CE
330
1F
100
AcDbEntity
  8
0
  6
Continuous
 62
     7
370
    15
100
AcDbLine
 10
235.1370059878
 20
667.530742385
 30
0.0
 11
237.6947008997
 21
667.530742385
 31
0.0
  0
LINE
  5
CF
330
1F
100
AcDbEntity
  8
0
  6
Continuous
 62
     7
370
    15
100
AcDbLine
 10
235.1370059878
 20
667.216625907
 30
0.0
 11
235.1370059878
 21
667.530742385
 31
0.0
  0
LINE
  5
D0
330
1F
100
AcDbEntity
  8
0
  6
Continuous
 62
     7
370
    15
100
AcDbLine
 10
236.3485597998
 20
663.4922892829
 30
0.0
 11
236.3485597998
 21
665.7807500144
 31
0.0
  0
SPLINE
  5
D1
330
1F
100
AcDbEntity
  8
0
  6
Continuous
 62
     7
370
    15
100
AcDbSpline
210
0.0
220
0.0
230
1.0
 70
     8
 71
     3
 72
     9
 73
     5
 74
     0
 42
0.000000001
 43
0.00000001
 40
0.0
 40
0.0
 40
0.0
 40
0.0
 40
0.5589033006467438
 40
0.9999999999999999
 40
0.9999999999999999
 40
0.9999999999999999
 40
0.9999999999999999
 10
237.236192169778
 20
663.7706131716448
 30
0.0
 10
237.0823043984585
 20
663.6795159128727
 30
0.0
 10
236.80696558557
 20
663.5165230325896
 30
0.0
 10
236.4888704945238
 20
663.4997068468787
 30
0.0
 10
236.3485597997829
 20
663.4922892828661
 30
0.0
  0
SPLINE
  5
D2
330
1F
100
AcDbEntity
  8
0
  6
Continuous
 62
     7
370
    15
100
AcDbSpline
210
0.0
220
0.0
230
1.0
 70
     8
 71
     3
 72
     9
 73
     5
 74
     0
 42
0.000000001
 43
0.00000001
 40
0.0
 40
0.0
 40
0.0
 40
0.0
 40
0.5589224546520354
 40
1.0
 40
1.0
 40
1.0
 40
1.0
 10
237.7395831972286
 20
664.8005814333635
 30
0.0
 10
237.713270769722
 20
664.5732377885143
 30
0.0
 10
237.6661937069066
 20
664.166484323956
 30
0.0
 10
237.3678048113773
 20
663.8917793619717
 30
0.0
 10
237.236192169778
 20
663.7706131716448
 30
0.0
  0
SPLINE
  5
D3
330
1F
100
AcDbEntity
  8
0
  6
Continuous
 62
     7
370
    15
100
AcDbSpline
210
0.0
220
0.0
230
1.0
 70
     8
 71
     3
 72
     9
 73
     5
 74
     0
 42
0.000000001
 43
0.00000001
 40
0.0
 40
0.0
 40
0.0
 40
0.0
 40
0.5585768439099815
 40
1.0
 40
1.0
 40
1.0
 40
1.0
 10
237.2628354459926
 20
665.8003599425035
 30
0.0
 10
237.4173791711121
 20
665.6433159000931
 30
0.0
 10
237.6940532345009
 20
665.3621656087363
 30
0.0
 10
237.7256400468366
 20
664.972561644765
 30
0.0
 10
237.7395831972286
 20
664.8005814333635
 30
0.0
  0
SPLINE
  5
D4
330
1F
100
AcDbEntity
  8
0
  6
Continuous
 62
     7
370
    15
100
AcDbSpline
210
0.0
220
0.0
230
1.0
 70
     8
 71
     3
 72
     9
 73
     5
 74
     0
 42
0.000000001
 43
0.00000001
 40
0.0
 40
0.0
 40
0.0
 40
0.0
 40
0.5594193116286549
 40
1.0
 40
1.0
 40
1.0
 40
1.0
 10
236.4088498979732
 20
666.0948366900162
 30
0.0
 10
236.5825795418695
 20
666.079286584285
 30
0.0
 10
236.8931330753014
 20
666.0514897145526
 30
0.0
 10
237.1497673434652
 20
665.8771643372403
 30
0.0
 10
237.2628354459926
 20
665.8003599425035
 30
0.0
  0
SPLINE
  5
D5
330
1F
100
AcDbEntity
  8
0
  6
Continuous
 62
     7
370
    15
100
AcDbSpline
210
0.0
220
0.0
230
1.0
 70
     8
 71
     3
 72
    11
 73
     7
 74
     0
 42
0.000000001
 43
0.00000001
 40
0.0
 40
0.0
 40
0.0
 40
0.0
 40
0.279892209691144
 40
0.5588595344612459
 40
0.779460012022627
 40
1.0
 40
1.0
 40
1.0
 40
1.0
 10
235.0921534925625
 20
664.8082704325394
 30
0.0
 10
235.1096305366203
 20
665.0028567996304
 30
0.0
 10
235.144526873023
 20
665.3913865362924
 30
0.0
 10
235.5179525325309
 20
665.8097064871296
 30
0.0
 10
235.9548717770318
 20
666.0529421380605
 30
0.0
 10
236.2575376916017
 20
666.0808731160047
 30
0.0
 10
236.4088498979732
 20
666.0948366900162
 30
0.0
  0
SPLINE
  5
D6
330
1F
100
AcDbEntity
  8
0
  6
Continuous
 62
     7
370
    15
100
AcDbSpline
210
0.0
220
0.0
230
1.0
 70
     8
 71
     3
 72
    10
 73
     6
 74
     0
 42
0.000000001
 43
0.00000001
 40
0.0
 40
0.0
 40
0.0
 40
0.0
 40
0.2809071261125236
 40
0.561409981729267
 40
1.0
 40
1.0
 40
1.0
 40
1.0
 10
235.798170509927
 20
663.6269063730912
 30
0.0
 10
235.6824159569443
 20
663.6982847047221
 30
0.0
 10
235.4510734403822
 20
663.8409386430943
 30
0.0
 10
235.1539713471475
 20
664.2432117719995
 30
0.0
 10
235.1155732858026
 20
664.5941970537853
 30
0.0
 10
235.0921534925625
 20
664.8082704325394
 30
0.0
  0
LINE
  5
D7
330
1F
100
AcDbEntity
  8
0
  6
Continuous
 62
     7
370
    15
100
AcDbLine
 10
235.9447085291
 20
663.9059455176
 30
0.0
 11
235.7981705099
 21
663.6269063731
 31
0.0
  0
SPLINE
  5
D8
330
1F
100
AcDbEntity
  8
0
  6
Continuous
 62
     7
370
    15
100
AcDbSpline
210
0.0
220
0.0
230
1.0
 70
     8
 71
     3
 72
    10
 73
     6
 74
     0
 42
0.000000001
 43
0.00000001
 40
0.0
 40
0.0
 40
0.0
 40
0.0
 40
0.2805450387257721
 40
0.5609671225195485
 40
1.0
 40
1.0
 40
1.0
 40
1.0
 10
235.4062401682064
 20
664.8475498934464
 30
0.0
 10
235.4151578684101
 20
664.7418064684674
 30
0.0
 10
235.4329893604424
 20
664.5303659628528
 30
0.0
 10
235.5854942322607
 20
664.171177222846
 30
0.0
 10
235.8085768571976
 20
664.0064605466429
 30
0.0
 10
235.9447085291073
 20
663.9059455176072
 30
0.0
  0
SPLINE
  5
D9
330
1F
100
AcDbEntity
  8
0
  6
Continuous
 62
     7
370
    15
100
AcDbSpline
210
0.0
220
0.0
230
1.0
 70
     8
 71
     3
 72
    11
 73
     7
 74
     0
 42
0.000000001
 43
0.00000001
 40
0.0
 40
0.0
 40
0.0
 40
0.0
 40
0.2799745401180341
 40
0.559371016336502
 40
0.7795221389410986
 40
0.9999999999999999
 40
0.9999999999999999
 40
0.9999999999999999
 40
0.9999999999999999
 10
236.3485597997829
 20
665.7807500143723
 30
0.0
 10
236.2099680981894
 20
665.7646570186675
 30
0.0
 10
235.9330708455198
 20
665.7325042544933
 30
0.0
 10
235.619658975846
 20
665.4849395603393
 30
0.0
 10
235.4330369335987
 20
665.1744403908169
 30
0.0
 10
235.4151768379205
 20
664.9565672455373
 30
0.0
 10
235.4062401682064
 20
664.8475498934464
 30
0.0
  0
LINE
  5
DA
330
1F
100
AcDbEntity
  8
0
  6
Continuous
 62
     7
370
    15
100
AcDbLine
 10
252.1597647101
 20
658.1525773783
 30
0.0
 11
252.1597647101
 21
683.5525901099
 31
0.0
  0
LINE
  5
DB
330
1F
100
AcDbEntity
  8
0
  6
Continuous
 62
     7
370
    15
100
AcDbLine
 10
226.7597817808
 20
658.1525773783
 30
0.0
 11
252.1597647101
 21
658.1525773783
 31
0.0
  0
LINE
  5
DC
330
1F
100
AcDbEntity
  8
0
  6
Continuous
 62
     7
370
    15
100
AcDbLine
 10
226.7597817808
 20
683.5525901099
 30
0.0
 11
226.7597817808
 21
658.1525773783
 31
0.0
  0
LINE
  5
DD
330
1F
100
AcDbEntity
  8
0
  6
Continuous
 62
     7
370
    15
100
AcDbLine
 10
252.1597647101
 20
683.5525901099
 30
0.0
 11
226.7597817808
 21
683.5525901099
 31
0.0
  0
LINE
  5
DE
330
1F
100
AcDbEntity
  8
0
  6
Continuous
 62
     7
370
    15
100
AcDbLine
 10
241.9703506857
 20
678.6140770693
 30
0.0
 11
245.1113664538
 21
678.6140770693
 31
0.0
  0
LINE
  5
DF
330
1F
100
AcDbEntity
  8
0
  6
Continuous
 62
     7
370
    15
100
AcDbLine
 10
241.9703506857
 20
678.2999605914
 30
0.0
 11
241.9703506857
 21
678.6140770693
 31
0.0
  0
LINE
  5
E0
330
1F
100
AcDbEntity
  8
0
  6
Continuous
 62
     7
370
    15
100
AcDbLine
 10
245.4703652292
 20
678.2999605914
 30
0.0
 11
241.9703506857
 21
678.2999605914
 31
0.0
  0
LINE
  5
E1
330
1F
100
AcDbEntity
  8
0
  6
Continuous
 62
     7
370
    15
100
AcDbLine
 10
245.4703652292
 20
678.947118022
 30
0.0
 11
245.4703652292
 21
678.2999605914
 31
0.0
  0
LINE
  5
E2
330
1F
100
AcDbEntity
  8
0
  6
Continuous
 62
     7
370
    15
100
AcDbLine
 10
245.1113664538
 20
679.1525454303
 30
0.0
 11
245.4703652292
 21
678.947118022
 31
0.0
  0
LINE
  5
E3
330
1F
100
AcDbEntity
  8
0
  6
Continuous
 62
     7
370
    15
100
AcDbLine
 10
245.1113664538
 20
678.6140770693
 30
0.0
 11
245.1113664538
 21
679.1525454303
 31
0.0
  0
SPLINE
  5
E4
330
1F
100
AcDbEntity
  8
0
  6
Continuous
 62
     7
370
    15
100
AcDbSpline
210
0.0
220
0.0
230
1.0
 70
     8
 71
     3
 72
    11
 73
     7
 74
     0
 42
0.000000001
 43
0.00000001
 40
0.0
 40
0.0
 40
0.0
 40
0.0
 40
0.280069673264041
 40
0.5596499056980581
 40
0.7798178868631048
 40
1.0
 40
1.0
 40
1.0
 40
1.0
 10
241.9254683881923
 20
665.0929422159868
 30
0.0
 10
241.9437946766005
 20
665.2937676716135
 30
0.0
 10
241.9804152269795
 20
665.6950676267048
 30
0.0
 10
242.3195012741038
 20
666.1600975509394
 30
0.0
 10
242.7555392065182
 20
666.4529785601255
 30
0.0
 10
243.0706148330298
 20
666.483451167855
 30
0.0
 10
243.2281577020808
 20
666.498687960692
 30
0.0
  0
SPLINE
  5
E5
330
1F
100
AcDbEntity
  8
0
  6
Continuous
 62
     7
370
    15
100
AcDbSpline
210
0.0
220
0.0
230
1.0
 70
     8
 71
     3
 72
    10
 73
     6
 74
     0
 42
0.000000001
 43
0.00000001
 40
0.0
 40
0.0
 40
0.0
 40
0.0
 40
0.2802071216148192
 40
0.5605845153182664
 40
1.0
 40
1.0
 40
1.0
 40
1.0
 10
242.5158225923702
 20
663.8961107512193
 30
0.0
 10
242.4139057360752
 20
663.9772960838147
 30
0.0
 10
242.2100100921686
 20
664.1397160824986
 30
0.0
 10
241.9748710995471
 20
664.5536319573366
 30
0.0
 10
241.9441952340694
 20
664.8885084953124
 30
0.0
 10
241.9254683881923
 20
665.0929422159868
 30
0.0
  0
LINE
  5
E6
330
1F
100
AcDbEntity
  8
0
  6
Continuous
 62
     7
370
    15
100
AcDbLine
 10
242.688288632
 20
664.1590566416
 30
0.0
 11
242.5158225924
 21
663.8961107512
 31
0.0
  0
SPLINE
  5
E7
330
1F
100
AcDbEntity
  8
0
  6
Continuous
 62
     7
370
    15
100
AcDbSpline
210
0.0
220
0.0
230
1.0
 70
     8
 71
     3
 72
     9
 73
     5
 74
     0
 42
0.000000001
 43
0.00000001
 40
0.0
 40
0.0
 40
0.0
 40
0.0
 40
0.5587952506793638
 40
1.0
 40
1.0
 40
1.0
 40
1.0
 10
242.2395848661587
 20
665.0880248327928
 30
0.0
 10
242.2642786414143
 20
664.8844746487083
 30
0.0
 10
242.3084697386465
 20
664.5202085175322
 30
0.0
 10
242.5720123709896
 20
664.2696182554224
 30
0.0
 10
242.6882886320278
 20
664.159056641646
 30
0.0
  0
SPLINE
  5
E8
330
1F
100
AcDbEntity
  8
0
  6
Continuous
 62
     7
370
    15
100
AcDbSpline
210
0.0
220
0.0
230
1.0
 70
     8
 71
     3
 72
    11
 73
     7
 74
     0
 42
0.000000001
 43
0.00000001
 40
0.0
 40
0.0
 40
0.0
 40
0.0
 40
0.2793294223377817
 40
0.5587737210706643
 40
0.7792638069337053
 40
1.0
 40
1.0
 40
1.0
 40
1.0
 10
243.2562016874477
 20
666.1845714827257
 30
0.0
 10
243.1006426320613
 20
666.1626088206826
 30
0.0
 10
242.7894605464187
 20
666.1186744642811
 30
0.0
 10
242.4499698281577
 20
665.8185446230561
 30
0.0
 10
242.267107720307
 20
665.4556902739524
 30
0.0
 10
242.248762561729
 20
665.2106255439161
 30
0.0
 10
242.2395848661586
 20
665.0880248327928
 30
0.0
  0
SPLINE
  5
E9
330
1F
100
AcDbEntity
  8
0
  6
Continuous
 62
     7
370
    15
100
AcDbSpline
210
0.0
220
0.0
230
1.0
 70
     8
 71
     3
 72
    11
 73
     7
 74
     0
 42
0.000000001
 43
0.00000001
 40
0.0
 40
0.0
 40
0.0
 40
0.0
 40
0.2801336998521826
 40
0.5597567452482437
 40
0.7798897001191388
 40
1.0
 40
1.0
 40
1.0
 40
1.0
 10
244.2588114172146
 20
665.0901407976824
 30
0.0
 10
244.244841754084
 20
665.2456354764354
 30
0.0
 10
244.2169278930585
 20
665.5563413833938
 30
0.0
 10
243.9574117653784
 20
665.9178479113816
 30
0.0
 10
243.622229728885
 20
666.1487526085837
 30
0.0
 10
243.3782068487743
 20
666.1726322676287
 30
0.0
 10
243.2562016874477
 20
666.1845714827257
 30
0.0
  0
SPLINE
  5
EA
330
1F
100
AcDbEntity
  8
0
  6
Continuous
 62
     7
370
    15
100
AcDbSpline
210
0.0
220
0.0
230
1.0
 70
     8
 71
     3
 72
     9
 73
     5
 74
     0
 42
0.000000001
 43
0.00000001
 40
0.0
 40
0.0
 40
0.0
 40
0.0
 40
0.5584440480305713
 40
1.0
 40
1.0
 40
1.0
 40
1.0
 10
243.8101076513454
 20
664.159056641646
 30
0.0
 10
243.9560819870137
 20
664.3044697938025
 30
0.0
 10
244.2174767250957
 20
664.5648596263545
 30
0.0
 10
244.2461503898691
 20
664.9292444916177
 30
0.0
 10
244.2588114172146
 20
665.0901407976824
 30
0.0
  0
LINE
  5
EB
330
1F
100
AcDbEntity
  8
0
  6
Continuous
 62
     7
370
    15
100
AcDbLine
 10
243.9734541804
 20
663.8961107512
 30
0.0
 11
243.8101076513
 21
664.1590566416
 31
0.0
  0
SPLINE
  5
EC
330
1F
100
AcDbEntity
  8
0
  6
Continuous
 62
     7
370
    15
100
AcDbSpline
210
0.0
220
0.0
230
1.0
 70
     8
 71
     3
 72
     9
 73
     5
 74
     0
 42
0.000000001
 43
0.00000001
 40
0.0
 40
0.0
 40
0.0
 40
0.0
 40
0.5606381478660313
 40
1.0
 40
1.0
 40
1.0
 40
1.0
 10
244.5729278951809
 20
665.0669843931871
 30
0.0
 10
244.5437930933226
 20
664.8022740702611
 30
0.0
 10
244.4918258806577
 20
664.3301151136618
 30
0.0
 10
244.1316859342386
 20
664.0285895717705
 30
0.0
 10
243.9734541803524
 20
663.8961107512193
 30
0.0
  0
SPLINE
  5
ED
330
1F
100
AcDbEntity
  8
0
  6
Continuous
 62
     7
370
    15
100
AcDbSpline
210
0.0
220
0.0
230
1.0
 70
     8
 71
     3
 72
    11
 73
     7
 74
     0
 42
0.000000001
 43
0.00000001
 40
0.0
 40
0.0
 40
0.0
 40
0.0
 40
0.2793783984901602
 40
0.5587821608036694
 40
0.7792751793526935
 40
1.0
 40
1.0
 40
1.0
 40
1.0
 10
243.2281577020808
 20
666.498687960692
 30
0.0
 10
243.4328282675682
 20
666.4712074312014
 30
0.0
 10
243.8421879798939
 20
666.4162438773553
 30
0.0
 10
244.29024124594
 20
666.0245686098889
 30
0.0
 10
244.5355359281086
 20
665.5502010160947
 30
0.0
 10
244.5604595414603
 20
665.2281130058229
 30
0.0
 10
244.5729278951808
 20
665.0669843931871
 30
0.0
  0
LINE
  5
EE
330
1F
100
AcDbEntity
  8
0
  6
Continuous
 62
     7
370
    15
100
AcDbLine
 10
242.8951465517
 20
669.0563828726
 30
0.0
 11
241.9703506857
 21
669.0563828726
 31
0.0
  0
SPLINE
  5
EF
330
1F
100
AcDbEntity
  8
0
  6
Continuous
 62
     7
370
    15
100
AcDbSpline
210
0.0
220
0.0
230
1.0
 70
     8
 71
     3
 72
     9
 73
     5
 74
     0
 42
0.000000001
 43
0.00000001
 40
0.0
 40
0.0
 40
0.0
 40
0.0
 40
0.559675542657898
 40
1.0
 40
1.0
 40
1.0
 40
1.0
 10
243.5815238386317
 20
669.0080137034136
 30
0.0
 10
243.4540248974923
 20
669.0255128336603
 30
0.0
 10
243.2262162272509
 20
669.0567793960041
 30
0.0
 10
242.9963585213412
 20
669.0565040945932
 30
0.0
 10
242.8951465517207
 20
669.0563828726488
 30
0.0
  0
SPLINE
  5
F0
330
1F
100
AcDbEntity
  8
0
  6
Continuous
 62
     7
370
    15
100
AcDbSpline
210
0.0
220
0.0
230
1.0
 70
     8
 71
     3
 72
    11
 73
     7
 74
     0
 42
0.000000001
 43
0.00000001
 40
0.0
 40
0.0
 40
0.0
 40
0.0
 40
0.2795428355768933
 40
0.5593783712768887
 40
0.7796960600386664
 40
1.0
 40
1.0
 40
1.0
 40
1.0
 10
244.2588114172145
 20
668.1379050989824
 30
0.0
 10
244.2472562869131
 20
668.2487814125191
 30
0.0
 10
244.2241339273128
 20
668.470650134539
 30
0.0
 10
244.0443946843085
 20
668.7308063919359
 30
0.0
 10
243.8283948373628
 20
668.9200690173336
 30
0.0
 10
243.6638124597104
 20
668.9786994178721
 30
0.0
 10
243.5815238386317
 20
669.0080137034136
 30
0.0
  0
SPLINE
  5
F1
330
1F
100
AcDbEntity
  8
0
  6
Continuous
 62
     7
370
    15
100
AcDbSpline
210
0.0
220
0.0
230
1.0
 70
     8
 71
     3
 72
    10
 73
     6
 74
     0
 42
0.000000001
 43
0.00000001
 40
0.0
 40
0.0
 40
0.0
 40
0.0
 40
0.2811990202756941
 40
0.5613325919638106
 40
0.9999999999999999
 40
0.9999999999999999
 40
0.9999999999999999
 40
0.9999999999999999
 10
243.7554203897639
 20
667.4781412859636
 30
0.0
 10
243.8368194009648
 20
667.5032457085285
 30
0.0
 10
243.9993090067104
 20
667.5533594342958
 30
0.0
 10
244.2232178818805
 20
667.7807675230388
 30
0.0
 10
244.2453218704995
 20
668.0025540030837
 30
0.0
 10
244.2588114172145
 20
668.1379050989824
 30
0.0
  0
SPLINE
  5
F2
330
1F
100
AcDbEntity
  8
0
  6
Continuous
 62
     7
370
    15
100
AcDbSpline
210
0.0
220
0.0
230
1.0
 70
     8
 71
     3
 72
     9
 73
     5
 74
     0
 42
0.000000001
 43
0.00000001
 40
0.0
 40
0.0
 40
0.0
 40
0.0
 40
0.5602690087119963
 40
1.0
 40
1.0
 40
1.0
 40
1.0
 10
243.1734704404994
 20
667.4410075922685
 30
0.0
 10
243.2826838856917
 20
667.440330044775
 30
0.0
 10
243.4776142557356
 20
667.4391207194632
 30
0.0
 10
243.670571228746
 20
667.4662233981834
 30
0.0
 10
243.7554203897639
 20
667.4781412859636
 30
0.0
  0
LINE
  5
F3
330
1F
100
AcDbEntity
  8
0
  6
Continuous
 62
     7
370
    15
100
AcDbLine
 10
241.9703506857
 20
667.4410075923
 30
0.0
 11
243.1734704405
 21
667.4410075923
 31
0.0
  0
LINE
  5
F4
330
1F
100
AcDbEntity
  8
0
  6
Continuous
 62
     7
370
    15
100
AcDbLine
 10
241.9703506857
 20
667.1268911143
 30
0.0
 11
241.9703506857
 21
667.4410075923
 31
0.0
  0
LINE
  5
F5
330
1F
100
AcDbEntity
  8
0
  6
Continuous
 62
     7
370
    15
100
AcDbLine
 10
243.2765566736
 20
667.1268911143
 30
0.0
 11
241.9703506857
 21
667.1268911143
 31
0.0
  0
SPLINE
  5
F6
330
1F
100
AcDbEntity
  8
0
  6
Continuous
 62
     7
370
    15
100
AcDbSpline
210
0.0
220
0.0
230
1.0
 70
     8
 71
     3
 72
    11
 73
     7
 74
     0
 42
0.000000001
 43
0.00000001
 40
0.0
 40
0.0
 40
0.0
 40
0.0
 40
0.1870260670741554
 40
0.3738924390336189
 40
0.560620054469012
 40
1.0
 40
1.0
 40
1.0
 40
1.0
 10
244.5729278951808
 20
668.083217837401
 30
0.0
 10
244.5629001558461
 20
667.9685209952992
 30
0.0
 10
244.5428532395181
 20
667.7392252467769
 30
0.0
 10
244.3585673582247
 20
667.4382352063833
 30
0.0
 10
243.949867158803
 20
667.132800517555
 30
0.0
 10
243.5542127911367
 20
667.1293280018899
 30
0.0
 10
243.2765566736384
 20
667.1268911143022
 30
0.0
  0
SPLINE
  5
F7
330
1F
100
AcDbEntity
  8
0
  6
Continuous
 62
     7
370
    15
100
AcDbSpline
210
0.0
220
0.0
230
1.0
 70
     8
 71
     3
 72
     9
 73
     5
 74
     0
 42
0.000000001
 43
0.00000001
 40
0.0
 40
0.0
 40
0.0
 40
0.0
 40
0.5591324066536612
 40
1.0
 40
1.0
 40
1.0
 40
1.0
 10
244.0667056471034
 20
669.0563828726488
 30
0.0
 10
244.2275562467368
 20
668.9071316572486
 30
0.0
 10
244.5152351537709
 20
668.6401980765362
 30
0.0
 10
244.5552754334443
 20
668.2536391437743
 30
0.0
 10
244.5729278951808
 20
668.083217837401
 30
0.0
  0
LINE
  5
F8
330
1F
100
AcDbEntity
  8
0
  6
Continuous
 62
     7
370
    15
100
AcDbLine
 10
244.5280455977
 20
669.0563828726
 30
0.0
 11
244.0667056471
 21
669.0563828726
 31
0.0
  0
LINE
  5
F9
330
1F
100
AcDbEntity
  8
0
  6
Continuous
 62
     7
370
    15
100
AcDbLine
 10
244.5280455977
 20
669.3704695483
 30
0.0
 11
244.5280455977
 21
669.0563828726
 31
0.0
  0
LINE
  5
FA
330
1F
100
AcDbEntity
  8
0
  6
Continuous
 62
     7
370
    15
100
AcDbLine
 10
241.9703506857
 20
669.3704695483
 30
0.0
 11
244.5280455977
 21
669.3704695483
 31
0.0
  0
LINE
  5
FB
330
1F
100
AcDbEntity
  8
0
  6
Continuous
 62
     7
370
    15
100
AcDbLine
 10
241.9703506857
 20
669.0563828726
 30
0.0
 11
241.9703506857
 21
669.3704695483
 31
0.0
  0
LINE
  5
FC
330
1F
100
AcDbEntity
  8
0
  6
Continuous
 62
     7
370
    15
100
AcDbLine
 10
244.5280455977
 20
670.1332897921
 30
0.0
 11
241.9703506857
 21
670.1332897921
 31
0.0
  0
LINE
  5
FD
330
1F
100
AcDbEntity
  8
0
  6
Continuous
 62
     7
370
    15
100
AcDbLine
 10
244.5280455977
 20
670.4474062701
 30
0.0
 11
244.5280455977
 21
670.1332897921
 31
0.0
  0
LINE
  5
FE
330
1F
100
AcDbEntity
  8
0
  6
Continuous
 62
     7
370
    15
100
AcDbLine
 10
241.9703506857
 20
670.4474062701
 30
0.0
 11
244.5280455977
 21
670.4474062701
 31
0.0
  0
LINE
  5
FF
330
1F
100
AcDbEntity
  8
0
  6
Continuous
 62
     7
370
    15
100
AcDbLine
 10
241.9703506857
 20
670.1332897921
 30
0.0
 11
241.9703506857
 21
670.4474062701
 31
0.0
  0
SPLINE
  5
100
330
1F
100
AcDbEntity
  8
0
  6
Continuous
 62
     7
370
    15
100
AcDbSpline
210
0.0
220
0.0
230
1.0
 70
     8
 71
     3
 72
    11
 73
     7
 74
     0
 42
0.000000001
 43
0.00000001
 40
0.0
 40
0.0
 40
0.0
 40
0.0
 40
0.2792111389697954
 40
0.5589030919860121
 40
0.7793952154174847
 40
1.0
 40
1.0
 40
1.0
 40
1.0
 10
245.334347429864
 20
669.9987025042253
 30
0.0
 10
245.2930627940406
 20
670.0047326743502
 30
0.0
 10
245.2104224284077
 20
670.0168033988218
 30
0.0
 10
245.1252953141911
 20
670.1005762939145
 30
0.0
 10
245.0735702766804
 20
670.1942810755509
 30
0.0
 10
245.0688664650729
 20
670.2592539870866
 30
0.0
 10
245.0665139585658
 20
670.2917487402635
 30
0.0
  0
SPLINE
  5
101
330
1F
100
AcDbEntity
  8
0
  6
Continuous
 62
     7
370
    15
100
AcDbSpline
210
0.0
220
0.0
230
1.0
 70
     8
 71
     3
 72
    11
 73
     7
 74
     0
 42
0.000000001
 43
0.00000001
 40
0.0
 40
0.0
 40
0.0
 40
0.0
 40
0.2798691106164997
 40
0.559862961209267
 40
0.7799551815662189
 40
1.0
 40
1.0
 40
1.0
 40
1.0
 10
245.6049823194667
 20
670.2917487402635
 30
0.0
 10
245.6007266029778
 20
670.2501887755421
 30
0.0
 10
245.592213273192
 20
670.1670503224793
 30
0.0
 10
245.5216028265126
 20
670.0712597873073
 30
0.0
 10
245.432274822891
 20
670.0089972057928
 30
0.0
 10
245.3669875504345
 20
670.0021338250235
 30
0.0
 10
245.334347429864
 20
669.9987025042253
 30
0.0
  0
SPLINE
  5
102
330
1F
100
AcDbEntity
  8
0
  6
Continuous
 62
     7
370
    15
100
AcDbSpline
210
0.0
220
0.0
230
1.0
 70
     8
 71
     3
 72
    11
 73
     7
 74
     0
 42
0.000000001
 43
0.00000001
 40
0.0
 40
0.0
 40
0.0
 40
0.0
 40
0.2792708345210994
 40
0.5588927083455574
 40
0.779403104324451
 40
1.0
 40
1.0
 40
1.0
 40
1.0
 10
245.334347429864
 20
670.5820233603197
 30
0.0
 10
245.375646952607
 20
670.5762922184547
 30
0.0
 10
245.4582979109817
 20
670.5648227307644
 30
0.0
 10
245.5450377672387
 20
670.4827324078913
 30
0.0
 10
245.5973112244949
 20
670.3891748292077
 30
0.0
 10
245.6024249535475
 20
670.3242283485091
 30
0.0
 10
245.6049823194667
 20
670.2917487402635
 30
0.0
  0
SPLINE
  5
103
330
1F
100
AcDbEntity
  8
0
  6
Continuous
 62
     7
370
    15
100
AcDbSpline
210
0.0
220
0.0
230
1.0
 70
     8
 71
     3
 72
    11
 73
     7
 74
     0
 42
0.000000001
 43
0.00000001
 40
0.0
 40
0.0
 40
0.0
 40
0.0
 40
0.2797783644444603
 40
0.5596796139165816
 40
0.7799077411179287
 40
1.0
 40
1.0
 40
1.0
 40
1.0
 10
245.0665139585658
 20
670.2917487402635
 30
0.0
 10
245.0709178188031
 20
670.3327861071333
 30
0.0
 10
245.0797274735536
 20
670.4148788654187
 30
0.0
 10
245.1496204897315
 20
670.5093386989219
 30
0.0
 10
245.2375908610226
 20
670.5712727470645
 30
0.0
 10
245.3021018755727
 20
670.5784405598181
 30
0.0
 10
245.334347429864
 20
670.5820233603197
 30
0.0
  0
LINE
  5
104
330
1F
100
AcDbEntity
  8
0
  6
Continuous
 62
     7
370
    15
100
AcDbLine
 10
241.9703506857
 20
673.5884220381
 30
0.0
 11
245.1113664538
 21
673.5884220381
 31
0.0
  0
LINE
  5
105
330
1F
100
AcDbEntity
  8
0
  6
Continuous
 62
     7
370
    15
100
AcDbLine
 10
241.9703506857
 20
673.2743353625
 30
0.0
 11
241.9703506857
 21
673.5884220381
 31
0.0
  0
LINE
  5
106
330
1F
100
AcDbEntity
  8
0
  6
Continuous
 62
     7
370
    15
100
AcDbLine
 10
245.4703652292
 20
673.2743353625
 30
0.0
 11
241.9703506857
 21
673.2743353625
 31
0.0
  0
LINE
  5
107
330
1F
100
AcDbEntity
  8
0
  6
Continuous
 62
     7
370
    15
100
AcDbLine
 10
245.4703652292
 20
673.9214629908
 30
0.0
 11
245.4703652292
 21
673.2743353625
 31
0.0
  0
LINE
  5
108
330
1F
100
AcDbEntity
  8
0
  6
Continuous
 62
     7
370
    15
100
AcDbLine
 10
245.1113664538
 20
674.126890399
 30
0.0
 11
245.4703652292
 21
673.9214629908
 31
0.0
  0
LINE
  5
109
330
1F
100
AcDbEntity
  8
0
  6
Continuous
 62
     7
370
    15
100
AcDbLine
 10
245.1113664538
 20
673.5884220381
 30
0.0
 11
245.1113664538
 21
674.126890399
 31
0.0
  0
LINE
  5
10A
330
1F
100
AcDbEntity
  8
0
  6
Continuous
 62
     7
370
    15
100
AcDbLine
 10
241.9703506857
 20
676.7595977565
 30
0.0
 11
241.9703506857
 21
677.1332890769
 31
0.0
  0
LINE
  5
10B
330
1F
100
AcDbEntity
  8
0
  6
Continuous
 62
     7
370
    15
100
AcDbLine
 10
243.0816196829
 20
675.9666473647
 30
0.0
 11
241.9703506857
 21
676.7595977565
 31
0.0
  0
LINE
  5
10C
330
1F
100
AcDbEntity
  8
0
  6
Continuous
 62
     7
370
    15
100
AcDbLine
 10
241.9703506857
 20
675.1736671706
 30
0.0
 11
243.0816196829
 21
675.9666473647
 31
0.0
  0
LINE
  5
10D
330
1F
100
AcDbEntity
  8
0
  6
Continuous
 62
     7
370
    15
100
AcDbLine
 10
241.9703506857
 20
674.7999758502
 30
0.0
 11
241.9703506857
 21
675.1736671706
 31
0.0
  0
LINE
  5
10E
330
1F
100
AcDbEntity
  8
0
  6
Continuous
 62
     7
370
    15
100
AcDbLine
 10
243.3438503176
 20
675.7794291754
 30
0.0
 11
241.9703506857
 21
674.7999758502
 31
0.0
  0
LINE
  5
10F
330
1F
100
AcDbEntity
  8
0
  6
Continuous
 62
     7
370
    15
100
AcDbLine
 10
244.5280455977
 20
674.9345929404
 30
0.0
 11
243.3438503176
 21
675.7794291754
 31
0.0
  0
LINE
  5
110
330
1F
100
AcDbEntity
  8
0
  6
Continuous
 62
     7
370
    15
100
AcDbLine
 10
244.5280455977
 20
675.3082842608
 30
0.0
 11
244.5280455977
 21
674.9345929404
 31
0.0
  0
LINE
  5
111
330
1F
100
AcDbEntity
  8
0
  6
Continuous
 62
     7
370
    15
100
AcDbLine
 10
243.6053656965
 20
675.9666473647
 30
0.0
 11
244.5280455977
 21
675.3082842608
 31
0.0
  0
LINE
  5
112
330
1F
100
AcDbEntity
  8
0
  6
Continuous
 62
     7
370
    15
100
AcDbLine
 10
244.5280455977
 20
676.6249806662
 30
0.0
 11
243.6053656965
 21
675.9666473647
 31
0.0
  0
LINE
  5
113
330
1F
100
AcDbEntity
  8
0
  6
Continuous
 62
     7
370
    15
100
AcDbLine
 10
244.5280455977
 20
676.998701789
 30
0.0
 11
244.5280455977
 21
676.6249806662
 31
0.0
  0
LINE
  5
114
330
1F
100
AcDbEntity
  8
0
  6
Continuous
 62
     7
370
    15
100
AcDbLine
 10
243.3438503176
 20
676.1531204959
 30
0.0
 11
244.5280455977
 21
676.998701789
 31
0.0
  0
LINE
  5
115
330
1F
100
AcDbEntity
  8
0
  6
Continuous
 62
     7
370
    15
100
AcDbLine
 10
241.9703506857
 20
677.1332890769
 30
0.0
 11
243.3438503176
 21
676.1531204959
 31
0.0
  0
SPLINE
  5
116
330
1F
100
AcDbEntity
  8
0
  6
Continuous
 62
     7
370
    15
100
AcDbSpline
210
0.0
220
0.0
230
1.0
 70
     8
 71
     3
 72
     9
 73
     5
 74
     0
 42
0.000000001
 43
0.00000001
 40
0.0
 40
0.0
 40
0.0
 40
0.0
 40
0.5590518976392886
 40
1.0
 40
1.0
 40
1.0
 40
1.0
 10
237.7395831972285
 20
669.5078880568224
 30
0.0
 10
237.7134502851138
 20
669.2770651018265
 30
0.0
 10
237.6667052293772
 20
668.8641822264254
 30
0.0
 10
237.3576967311171
 20
668.5927496819568
 30
0.0
 10
237.221440020196
 20
668.4730620165544
 30
0.0
  0
SPLINE
  5
117
330
1F
100
AcDbEntity
  8
0
  6
Continuous
 62
     7
370
    15
100
AcDbSpline
210
0.0
220
0.0
230
1.0
 70
     8
 71
     3
 72
    11
 73
     7
 74
     0
 42
0.000000001
 43
0.00000001
 40
0.0
 40
0.0
 40
0.0
 40
0.0
 40
0.2794075777726507
 40
0.559192396016782
 40
0.7795439574145245
 40
1.0
 40
1.0
 40
1.0
 40
1.0
 10
236.4228867918178
 20
670.85125754077
 30
0.0
 10
236.6188806527947
 20
670.826948030713
 30
0.0
 10
237.0111329946888
 20
670.7782961892592
 30
0.0
 10
237.4377420925131
 20
670.4077883444941
 30
0.0
 10
237.7000603853027
 20
669.9701043715187
 30
0.0
 10
237.7264068450213
 20
669.6619845054705
 30
0.0
 10
237.7395831972285
 20
669.5078880568224
 30
0.0
  0
SPLINE
  5
118
330
1F
100
AcDbEntity
  8
0
  6
Continuous
 62
     7
370
    15
100
AcDbSpline
210
0.0
220
0.0
230
1.0
 70
     8
 71
     3
 72
    11
 73
     7
 74
     0
 42
0.000000001
 43
0.00000001
 40
0.0
 40
0.0
 40
0.0
 40
0.0
 40
0.2795689776309216
 40
0.5593257954982203
 40
0.7795808371844162
 40
1.0
 40
1.0
 40
1.0
 40
1.0
 10
235.0921534925624
 20
669.5177228232102
 30
0.0
 10
235.1151492284193
 20
669.7142878428872
 30
0.0
 10
235.1611561507902
 20
670.1075499527598
 30
0.0
 10
235.5229213348353
 20
670.5426334295707
 30
0.0
 10
235.9593382459523
 20
670.8114351080787
 30
0.0
 10
236.2683322501215
 20
670.837980101139
 30
0.0
 10
236.4228867918177
 20
670.8512575407701
 30
0.0
  0
SPLINE
  5
119
330
1F
100
AcDbEntity
  8
0
  6
Continuous
 62
     7
370
    15
100
AcDbSpline
210
0.0
220
0.0
230
1.0
 70
     8
 71
     3
 72
     9
 73
     5
 74
     0
 42
0.000000001
 43
0.00000001
 40
0.0
 40
0.0
 40
0.0
 40
0.0
 40
0.5587494123587073
 40
1.0
 40
1.0
 40
1.0
 40
1.0
 10
235.5794214636012
 20
668.4730620165543
 30
0.0
 10
235.4220618738445
 20
668.6387702600989
 30
0.0
 10
235.1404336765234
 20
668.9353401353943
 30
0.0
 10
235.106934863496
 20
669.3394216274055
 30
0.0
 10
235.0921534925623
 20
669.5177228232103
 30
0.0
  0
LINE
  5
11A
330
1F
100
AcDbEntity
  8
0
  6
Continuous
 62
     7
370
    15
100
AcDbLine
 10
235.1370059878
 20
668.4730620166
 30
0.0
 11
235.5794214636
 21
668.4730620166
 31
0.0
  0
LINE
  5
11B
330
1F
100
AcDbEntity
  8
0
  6
Continuous
 62
     7
370
    15
100
AcDbLine
 10
235.1370059878
 20
668.1589455386
 30
0.0
 11
235.1370059878
 21
668.4730620166
 31
0.0
  0
LINE
  5
11C
330
1F
100
AcDbEntity
  8
0
  6
Continuous
 62
     7
370
    15
100
AcDbLine
 10
237.6947008997
 20
668.1589455386
 30
0.0
 11
235.1370059878
 21
668.1589455386
 31
0.0
  0
LINE
  5
11D
330
1F
100
AcDbEntity
  8
0
  6
Continuous
 62
     7
370
    15
100
AcDbLine
 10
237.6947008997
 20
668.4730620166
 30
0.0
 11
237.6947008997
 21
668.1589455386
 31
0.0
  0
LINE
  5
11E
330
1F
100
AcDbEntity
  8
0
  6
Continuous
 62
     7
370
    15
100
AcDbLine
 10
237.2214400202
 20
668.4730620166
 30
0.0
 11
237.6947008997
 21
668.4730620166
 31
0.0
  0
SPLINE
  5
11F
330
1F
100
AcDbEntity
  8
0
  6
Continuous
 62
     7
370
    15
100
AcDbSpline
210
0.0
220
0.0
230
1.0
 70
     8
 71
     3
 72
    11
 73
     7
 74
     0
 42
0.000000001
 43
0.00000001
 40
0.0
 40
0.0
 40
0.0
 40
0.0
 40
0.2814998311188793
 40
0.5596499057281125
 40
0.7792988599711839
 40
1.0
 40
1.0
 40
1.0
 40
1.0
 10
236.4495300680323
 20
671.4794606943802
 30
0.0
 10
236.2584395667964
 20
671.4823120122376
 30
0.0
 10
235.8785324791896
 20
671.4879807181959
 30
0.0
 10
235.3795051277858
 20
671.7340371082354
 30
0.0
 10
235.1204357836739
 20
672.1719751729343
 30
0.0
 10
235.1015959284388
 20
672.4714699138875
 30
0.0
 10
235.0921534925623
 20
672.621575095244
 30
0.0
  0
LINE
  5
120
330
1F
100
AcDbEntity
  8
0
  6
Continuous
 62
     7
370
    15
100
AcDbLine
 10
237.6947008997
 20
671.4794606944
 30
0.0
 11
236.449530068
 21
671.4794606944
 31
0.0
  0
LINE
  5
121
330
1F
100
AcDbEntity
  8
0
  6
Continuous
 62
     7
370
    15
100
AcDbLine
 10
237.6947008997
 20
671.79354737
 30
0.0
 11
237.6947008997
 21
671.4794606944
 31
0.0
  0
LINE
  5
122
330
1F
100
AcDbEntity
  8
0
  6
Continuous
 62
     7
370
    15
100
AcDbLine
 10
236.5084194571
 20
671.79354737
 30
0.0
 11
237.6947008997
 21
671.79354737
 31
0.0
  0
SPLINE
  5
123
330
1F
100
AcDbEntity
  8
0
  6
Continuous
 62
     7
370
    15
100
AcDbSpline
210
0.0
220
0.0
230
1.0
 70
     8
 71
     3
 72
     9
 73
     5
 74
     0
 42
0.000000001
 43
0.00000001
 40
0.0
 40
0.0
 40
0.0
 40
0.0
 40
0.5593846309540398
 40
1.0
 40
1.0
 40
1.0
 40
1.0
 10
235.8851038843318
 20
671.8454332133011
 30
0.0
 10
236.0006051061538
 20
671.826304983538
 30
0.0
 10
236.207084182322
 20
671.7921098542749
 30
0.0
 10
236.4162554026374
 20
671.7931077026807
 30
0.0
 10
236.5084194570704
 20
671.7935473700242
 30
0.0
  0
SPLINE
  5
124
330
1F
100
AcDbEntity
  8
0
  6
Continuous
 62
     7
370
    15
100
AcDbSpline
210
0.0
220
0.0
230
1.0
 70
     8
 71
     3
 72
    11
 73
     7
 74
     0
 42
0.000000001
 43
0.00000001
 40
0.0
 40
0.0
 40
0.0
 40
0.0
 40
0.2802706965485663
 40
0.5600239645647241
 40
0.7800650368135165
 40
0.9999999999999999
 40
0.9999999999999999
 40
0.9999999999999999
 40
0.9999999999999999
 10
235.4062401682063
 20
672.6187736769394
 30
0.0
 10
235.4115538803141
 20
672.5277653836922
 30
0.0
 10
235.4221714944915
 20
672.3459168143615
 30
0.0
 10
235.5317825195275
 20
672.1128702401588
 30
0.0
 10
235.6901680467458
 20
671.9361882075168
 30
0.0
 10
235.8201357199085
 20
671.875680013784
 30
0.0
 10
235.8851038843318
 20
671.8454332133011
 30
0.0
  0
SPLINE
  5
125
330
1F
100
AcDbEntity
  8
0
  6
Continuous
 62
     7
370
    15
100
AcDbSpline
210
0.0
220
0.0
230
1.0
 70
     8
 71
     3
 72
    10
 73
     6
 74
     0
 42
0.000000001
 43
0.00000001
 40
0.0
 40
0.0
 40
0.0
 40
0.0
 40
0.2801132957138647
 40
0.5605265793018551
 40
1.0
 40
1.0
 40
1.0
 40
1.0
 10
235.9103464513941
 20
673.4040350695328
 30
0.0
 10
235.8246154233205
 20
673.3654079547207
 30
0.0
 10
235.6530615533636
 20
673.2881123573134
 30
0.0
 10
235.448550357184
 20
673.0065764412594
 30
0.0
 10
235.4222785009725
 20
672.7657763241059
 30
0.0
 10
235.4062401682063
 20
672.6187736769394
 30
0.0
  0
SPLINE
  5
126
330
1F
100
AcDbEntity
  8
0
  6
Continuous
 62
     7
370
    15
100
AcDbSpline
210
0.0
220
0.0
230
1.0
 70
     8
 71
     3
 72
     9
 73
     5
 74
     0
 42
0.000000001
 43
0.00000001
 40
0.0
 40
0.0
 40
0.0
 40
0.0
 40
0.5603667270175524
 40
1.0
 40
1.0
 40
1.0
 40
1.0
 10
236.5084194570704
 20
673.4538049479203
 30
0.0
 10
236.3958348786801
 20
673.454134451346
 30
0.0
 10
236.1949225600822
 20
673.4547224652479
 30
0.0
 10
235.9972499207866
 20
673.4195139182754
 30
0.0
 10
235.9103464513941
 20
673.4040350695329
 30
0.0
  0
LINE
  5
127
330
1F
100
AcDbEntity
  8
0
  6
Continuous
 62
     7
370
    15
100
AcDbLine
 10
237.6947008997
 20
673.4538049479
 30
0.0
 11
236.5084194571
 21
673.4538049479
 31
0.0
  0
LINE
  5
128
330
1F
100
AcDbEntity
  8
0
  6
Continuous
 62
     7
370
    15
100
AcDbLine
 10
237.6947008997
 20
673.7679214259
 30
0.0
 11
237.6947008997
 21
673.4538049479
 31
0.0
  0
LINE
  5
129
330
1F
100
AcDbEntity
  8
0
  6
Continuous
 62
     7
370
    15
100
AcDbLine
 10
236.4726566702
 20
673.7679214259
 30
0.0
 11
237.6947008997
 21
673.7679214259
 31
0.0
  0
SPLINE
  5
12A
330
1F
100
AcDbEntity
  8
0
  6
Continuous
 62
     7
370
    15
100
AcDbSpline
210
0.0
220
0.0
230
1.0
 70
     8
 71
     3
 72
    10
 73
     6
 74
     0
 42
0.000000001
 43
0.00000001
 40
0.0
 40
0.0
 40
0.0
 40
0.0
 40
0.2809683117115205
 40
0.5597840029047157
 40
1.0
 40
1.0
 40
1.0
 40
1.0
 10
235.0921534925623
 20
672.6215750952439
 30
0.0
 10
235.107550668944
 20
672.8162773669742
 30
0.0
 10
235.1382270572378
 20
673.2041902115935
 30
0.0
 10
235.6499320833569
 20
673.7480944528655
 30
0.0
 10
236.1602329070175
 20
673.7603922750349
 30
0.0
 10
236.4726566702052
 20
673.7679214258866
 30
0.0
  0
SPLINE
  5
12B
330
1F
100
AcDbEntity
  8
0
  6
Continuous
 62
     7
370
    15
100
AcDbSpline
210
0.0
220
0.0
230
1.0
 70
     8
 71
     3
 72
     9
 73
     5
 74
     0
 42
0.000000001
 43
0.00000001
 40
0.0
 40
0.0
 40
0.0
 40
0.0
 40
0.5602553198272912
 40
1.0
 40
1.0
 40
1.0
 40
1.0
 10
243.1734704404995
 20
661.3384456415849
 30
0.0
 10
243.2826530410479
 20
661.337898698861
 30
0.0
 10
243.477533119263
 20
661.3369224605196
 30
0.0
 10
243.670544612431
 20
661.3632961793244
 30
0.0
 10
243.755420389764
 20
661.3748938818651
 30
0.0
  0
LINE
  5
12C
330
1F
100
AcDbEntity
  8
0
  6
Continuous
 62
     7
370
    15
100
AcDbLine
 10
245.560100022
 20
663.2679075976
 30
0.0
 11
245.560100022
 21
662.953820922
 31
0.0
  0
SPLINE
  5
12D
330
1F
100
AcDbEntity
  8
0
  6
Continuous
 62
     7
370
    15
100
AcDbSpline
210
0.0
220
0.0
230
1.0
 70
     8
 71
     3
 72
    11
 73
     7
 74
     0
 42
0.000000001
 43
0.00000001
 40
0.0
 40
0.0
 40
0.0
 40
0.0
 40
0.2802975044694674
 40
0.5599332448920722
 40
0.7799383836909614
 40
1.0
 40
1.0
 40
1.0
 40
1.0
 10
238.3677863508387
 20
678.6841721316057
 30
0.0
 10
238.3623205131146
 20
678.7552410463574
 30
0.0
 10
238.3514017421513
 20
678.8972110868085
 30
0.0
 10
238.2423003311746
 20
679.0681215199621
 30
0.0
 10
238.0923563440067
 20
679.1802414248663
 30
0.0
 10
237.980580510769
 20
679.1916786026414
 30
0.0
 10
237.9246854215783
 20
679.1973979254442
 30
0.0
  0
SPLINE
  5
12E
330
1F
100
AcDbEntity
  8
0
  6
Continuous
 62
     7
370
    15
100
AcDbSpline
210
0.0
220
0.0
230
1.0
 70
     8
 71
     3
 72
    11
 73
     7
 74
     0
 42
0.000000001
 43
0.00000001
 40
0.0
 40
0.0
 40
0.0
 40
0.0
 40
0.2797611934971094
 40
0.5592942880874546
 40
0.779724335226824
 40
1.0
 40
1.0
 40
1.0
 40
1.0
 10
237.4254667192622
 20
669.5036859293657
 30
0.0
 10
237.4080077115961
 20
669.6536639126249
 30
0.0
 10
237.373103931192
 20
669.9534975969443
 30
0.0
 10
237.1064911628818
 20
670.2942396683327
 30
0.0
 10
236.7722042258141
 20
670.4988074004901
 30
0.0
 10
236.5369540171779
 20
670.5243661598379
 30
0.0
 10
236.419370117776
 20
670.5371410628037
 30
0.0
  0
SPLINE
  5
12F
330
1F
100
AcDbEntity
  8
0
  6
Continuous
 62
     7
370
    15
100
AcDbSpline
210
0.0
220
0.0
230
1.0
 70
     8
 71
     3
 72
    11
 73
     7
 74
     0
 42
0.000000001
 43
0.00000001
 40
0.0
 40
0.0
 40
0.0
 40
0.0
 40
0.2794284839696198
 40
0.5591435010363194
 40
0.7795565296316797
 40
0.9999999999999999
 40
0.9999999999999999
 40
0.9999999999999999
 40
0.9999999999999999
 10
236.419370117776
 20
670.5371410628037
 30
0.0
 10
236.2700336618142
 20
670.5159737839366
 30
0.0
 10
235.9712076164782
 20
670.4736175207345
 30
0.0
 10
235.6377210151347
 20
670.1980762500341
 30
0.0
 10
235.4406604122588
 20
669.8597113792273
 30
0.0
 10
235.4177141110488
 20
669.6242341115368
 30
0.0
 10
235.4062401682063
 20
669.50648734767
 30
0.0
  0
SPLINE
  5
130
330
1F
100
AcDbEntity
  8
0
  6
Continuous
 62
     7
370
    15
100
AcDbSpline
210
0.0
220
0.0
230
1.0
 70
     8
 71
     3
 72
    11
 73
     7
 74
     0
 42
0.000000001
 43
0.00000001
 40
0.0
 40
0.0
 40
0.0
 40
0.0
 40
0.2798156693074647
 40
0.5593811245576844
 40
0.7796090314863894
 40
1.0
 40
1.0
 40
1.0
 40
1.0
 10
235.4062401682063
 20
669.50648734767
 30
0.0
 10
235.4243259261107
 20
669.3565491826621
 30
0.0
 10
235.4604812694484
 20
669.0568069288996
 30
0.0
 10
235.7171057411
 20
668.7073244568453
 30
0.0
 10
236.0555558143681
 20
668.5038893516721
 30
0.0
 10
236.2919898435115
 20
668.483340329813
 30
0.0
 10
236.4102506071254
 20
668.4730620165543
 30
0.0
  0
SPLINE
  5
131
330
1F
100
AcDbEntity
  8
0
  6
Continuous
 62
     7
370
    15
100
AcDbSpline
210
0.0
220
0.0
230
1.0
 70
     8
 71
     3
 72
    11
 73
     7
 74
     0
 42
0.000000001
 43
0.00000001
 40
0.0
 40
0.0
 40
0.0
 40
0.0
 40
0.2796653139042901
 40
0.559206533766004
 40
0.779491140960968
 40
1.0
 40
1.0
 40
1.0
 40
1.0
 10
236.4102506071254
 20
668.4730620165543
 30
0.0
 10
236.5619308880196
 20
668.4898178758297
 30
0.0
 10
236.8652241457188
 20
668.5233221594133
 30
0.0
 10
237.1988590763275
 20
668.8060952574631
 30
0.0
 10
237.3972765701054
 20
669.146770124315
 30
0.0
 10
237.4160668163899
 20
669.3846736502054
 30
0.0
 10
237.4254667192622
 20
669.5036859293657
 30
0.0
  0
SPLINE
  5
132
330
1F
100
AcDbEntity
  8
0
  6
Continuous
 62
     7
370
    15
100
AcDbSpline
210
0.0
220
0.0
230
1.0
 70
     8
 71
     3
 72
    11
 73
     7
 74
     0
 42
0.000000001
 43
0.00000001
 40
0.0
 40
0.0
 40
0.0
 40
0.0
 40
0.2797627333254823
 40
0.559282386364025
 40
0.7797231228116415
 40
1.0
 40
1.0
 40
1.0
 40
1.0
 10
237.4254667192622
 20
675.7857472677904
 30
0.0
 10
237.4080103256205
 20
675.9357276540413
 30
0.0
 10
237.3731127058512
 20
676.235558111562
 30
0.0
 10
237.1064712485369
 20
676.576266377758
 30
0.0
 10
236.7722140788279
 20
676.7808754114301
 30
0.0
 10
236.5369556150141
 20
676.8064299050245
 30
0.0
 10
236.4193701177759
 20
676.8192024012285
 30
0.0
  0
SPLINE
  5
133
330
1F
100
AcDbEntity
  8
0
  6
Continuous
 62
     7
370
    15
100
AcDbSpline
210
0.0
220
0.0
230
1.0
 70
     8
 71
     3
 72
    11
 73
     7
 74
     0
 42
0.000000001
 43
0.00000001
 40
0.0
 40
0.0
 40
0.0
 40
0.0
 40
0.279435413594519
 40
0.5591414724511156
 40
0.7795729042011378
 40
1.0
 40
1.0
 40
1.0
 40
1.0
 10
236.4193701177759
 20
676.8192024012284
 30
0.0
 10
236.2700361528841
 20
676.7980208358762
 30
0.0
 10
235.9712235867082
 20
676.7556371899111
 30
0.0
 10
235.6377011191111
 20
676.4801361512655
 30
0.0
 10
235.4406727967498
 20
676.1417560843558
 30
0.0
 10
235.4177176357975
 20
675.9062837135391
 30
0.0
 10
235.4062401682062
 20
675.7885486860948
 30
0.0
  0
SPLINE
  5
134
330
1F
100
AcDbEntity
  8
0
  6
Continuous
 62
     7
370
    15
100
AcDbSpline
210
0.0
220
0.0
230
1.0
 70
     8
 71
     3
 72
    11
 73
     7
 74
     0
 42
0.000000001
 43
0.00000001
 40
0.0
 40
0.0
 40
0.0
 40
0.0
 40
0.2798306021232129
 40
0.559392729834455
 40
0.779608642150406
 40
1.0
 40
1.0
 40
1.0
 40
1.0
 10
235.4062401682063
 20
675.7885486860947
 30
0.0
 10
235.4243248431787
 20
675.6386013394424
 30
0.0
 10
235.4604768423677
 20
675.3388505082652
 30
0.0
 10
235.717095841335
 20
674.9893464815407
 30
0.0
 10
236.055567591306
 20
674.7859640166932
 30
0.0
 10
236.2919915546105
 20
674.7653864385994
 30
0.0
 10
236.4102506071253
 20
674.7550935526566
 30
0.0
  0
SPLINE
  5
135
330
1F
100
AcDbEntity
  8
0
  6
Continuous
 62
     7
370
    15
100
AcDbSpline
210
0.0
220
0.0
230
1.0
 70
     8
 71
     3
 72
    11
 73
     7
 74
     0
 42
0.000000001
 43
0.00000001
 40
0.0
 40
0.0
 40
0.0
 40
0.0
 40
0.2796680762876461
 40
0.559208224147653
 40
0.7794919865817799
 40
1.0
 40
1.0
 40
1.0
 40
1.0
 10
236.4102506071253
 20
674.7550935526566
 30
0.0
 10
236.5619304528469
 20
674.7718616315668
 30
0.0
 10
236.8652207614543
 20
674.8053901191735
 30
0.0
 10
237.1988594324371
 20
675.0881549587485
 30
0.0
 10
237.3972764899549
 20
675.4288318312147
 30
0.0
 10
237.4160667896642
 20
675.6667351114967
 30
0.0
 10
237.4254667192622
 20
675.7857472677904
 30
0.0
  0
CIRCLE
  5
136
330
1F
100
AcDbEntity
  8
0
  6
Continuous
 62
     7
370
    15
100
AcDbCircle
 10
199.963493043
 20
335.2130268862
 30
0.0
 40
2.5
  0
LINE
  5
137
330
1F
100
AcDbEntity
  8
0
  6
Continuous
 62
     7
370
    15
100
AcDbLine
 10
204.9634956747
 20
330.2130260547
 30
0.0
 11
204.9634956747
 21
340.2130276938
 31
0.0
  0
LINE
  5
138
330
1F
100
AcDbEntity
  8
0
  6
Continuous
 62
     7
370
    15
100
AcDbLine
 10
194.9635052115
 20
340.2130276938
 30
0.0
 11
194.9635052115
 21
330.2130260547
 31
0.0
  0
LINE
  5
139
330
1F
100
AcDbEntity
  8
0
  6
Continuous
 62
     7
370
    15
100
AcDbLine
 10
204.9634956747
 20
340.2130276938
 30
0.0
 11
194.9635052115
 21
340.2130276938
 31
0.0
  0
LINE
  5
13A
330
1F
100
AcDbEntity
  8
0
  6
Continuous
 62
     7
370
    15
100
AcDbLine
 10
194.9635052115
 20
330.2130260547
 30
0.0
 11
204.9634956747
 21
330.2130260547
 31
0.0
  0
CIRCLE
  5
13B
330
1F
100
AcDbEntity
  8
0
  6
Continuous
 62
     7
370
    15
100
AcDbCircle
 10
199.963493043
 20
345.2130268862
 30
0.0
 40
2.5
  0
LINE
  5
13C
330
1F
100
AcDbEntity
  8
0
  6
Continuous
 62
     7
370
    15
100
AcDbLine
 10
194.9635052115
 20
350.2130256077
 30
0.0
 11
194.9635052115
 21
340.2130276938
 31
0.0
  0
LINE
  5
13D
330
1F
100
AcDbEntity
  8
0
  6
Continuous
 62
     7
370
    15
100
AcDbLine
 10
204.9634956747
 20
340.2130276938
 30
0.0
 11
204.9634956747
 21
350.2130256077
 31
0.0
  0
LINE
  5
13E
330
1F
100
AcDbEntity
  8
0
  6
Continuous
 62
     7
370
    15
100
AcDbLine
 10
204.9634956747
 20
350.2130256077
 30
0.0
 11
194.9635052115
 21
350.2130256077
 31
0.0
  0
CIRCLE
  5
13F
330
1F
100
AcDbEntity
  8
0
  6
Continuous
 62
     7
370
    15
100
AcDbCircle
 10
199.963493043
 20
325.2130268862
 30
0.0
 40
2.5
  0
LINE
  5
140
330
1F
100
AcDbEntity
  8
0
  6
Continuous
 62
     7
370
    15
100
AcDbLine
 10
204.9634956747
 20
320.2130267439
 30
0.0
 11
204.9634956747
 21
330.2130260547
 31
0.0
  0
LINE
  5
141
330
1F
100
AcDbEntity
  8
0
  6
Continuous
 62
     7
370
    15
100
AcDbLine
 10
194.9635052115
 20
320.2130267439
 30
0.0
 11
204.9634956747
 21
320.2130267439
 31
0.0
  0
LINE
  5
142
330
1F
100
AcDbEntity
  8
0
  6
Continuous
 62
     7
370
    15
100
AcDbLine
 10
194.9635052115
 20
330.2130260547
 30
0.0
 11
194.9635052115
 21
320.2130267439
 31
0.0
  0
CIRCLE
  5
143
330
1F
100
AcDbEntity
  8
0
  6
Continuous
 62
     7
370
    15
100
AcDbCircle
 10
199.963493043
 20
375.2130268862
 30
0.0
 40
2.5
  0
LINE
  5
144
330
1F
100
AcDbEntity
  8
0
  6
Continuous
 62
     7
370
    15
100
AcDbLine
 10
204.9634956747
 20
370.2130251606
 30
0.0
 11
204.9634956747
 21
380.2130267997
 31
0.0
  0
LINE
  5
145
330
1F
100
AcDbEntity
  8
0
  6
Continuous
 62
     7
370
    15
100
AcDbLine
 10
194.9635052115
 20
370.2130251606
 30
0.0
 11
204.9634956747
 21
370.2130251606
 31
0.0
  0
LINE
  5
146
330
1F
100
AcDbEntity
  8
0
  6
Continuous
 62
     7
370
    15
100
AcDbLine
 10
194.9635052115
 20
380.2130267997
 30
0.0
 11
194.9635052115
 21
370.2130251606
 31
0.0
  0
CIRCLE
  5
147
330
1F
100
AcDbEntity
  8
0
  6
Continuous
 62
     7
370
    15
100
AcDbCircle
 10
199.963493043
 20
365.2130268862
 30
0.0
 40
2.5
  0
LINE
  5
148
330
1F
100
AcDbEntity
  8
0
  6
Continuous
 62
     7
370
    15
100
AcDbLine
 10
204.9634956747
 20
360.2130272468
 30
0.0
 11
204.9634956747
 21
370.2130251606
 31
0.0
  0
LINE
  5
149
330
1F
100
AcDbEntity
  8
0
  6
Continuous
 62
     7
370
    15
100
AcDbLine
 10
194.9635052115
 20
360.2130272468
 30
0.0
 11
204.9634956747
 21
360.2130272468
 31
0.0
  0
LINE
  5
14A
330
1F
100
AcDbEntity
  8
0
  6
Continuous
 62
     7
370
    15
100
AcDbLine
 10
194.9635052115
 20
370.2130251606
 30
0.0
 11
194.9635052115
 21
360.2130272468
 31
0.0
  0
CIRCLE
  5
14B
330
1F
100
AcDbEntity
  8
0
  6
Continuous
 62
     7
370
    15
100
AcDbCircle
 10
199.963493043
 20
355.2130268862
 30
0.0
 40
2.5
  0
LINE
  5
14C
330
1F
100
AcDbEntity
  8
0
  6
Continuous
 62
     7
370
    15
100
AcDbLine
 10
194.9635052115
 20
360.2130272468
 30
0.0
 11
194.9635052115
 21
350.2130256077
 31
0.0
  0
LINE
  5
14D
330
1F
100
AcDbEntity
  8
0
  6
Continuous
 62
     7
370
    15
100
AcDbLine
 10
204.9634956747
 20
350.2130256077
 30
0.0
 11
204.9634956747
 21
360.2130272468
 31
0.0
  0
LINE
  5
14E
330
1F
100
AcDbEntity
  8
0
  6
Continuous
 62
     7
370
    15
100
AcDbLine
 10
210.9635078341
 20
25.213030078
 30
0.0
 11
210.9635078341
 21
320.2130267439
 31
0.0
  0
LINE
  5
14F
330
1F
100
AcDbEntity
  8
0
  6
Continuous
 62
     7
370
    15
100
AcDbLine
 10
121.9634913832
 20
25.213030078
 30
0.0
 11
210.9635078341
 21
25.213030078
 31
0.0
  0
LINE
  5
150
330
1F
100
AcDbEntity
  8
0
  6
Continuous
 62
     7
370
    15
100
AcDbLine
 10
121.9634913832
 20
320.2130267439
 30
0.0
 11
121.9634913832
 21
25.213030078
 31
0.0
  0
LINE
  5
151
330
1F
100
AcDbEntity
  8
0
  6
Continuous
 62
     7
370
    15
100
AcDbLine
 10
210.9635078341
 20
320.2130267439
 30
0.0
 11
121.9634913832
 21
320.2130267439
 31
0.0
  0
LINE
  5
152
330
1F
100
AcDbEntity
  8
0
  6
Continuous
 62
     7
370
    15
100
AcDbLine
 10
37.4634766012
 20
25.213030078
 30
0.0
 11
37.4634766012
 21
320.2130267439
 31
0.0
  0
LINE
  5
153
330
1F
100
AcDbEntity
  8
0
  6
Continuous
 62
     7
370
    15
100
AcDbLine
 10
121.9634913832
 20
25.213030078
 30
0.0
 11
37.4634766012
 21
25.213030078
 31
0.0
  0
LINE
  5
154
330
1F
100
AcDbEntity
  8
0
  6
Continuous
 62
     7
370
    15
100
AcDbLine
 10
37.4634766012
 20
320.2130267439
 30
0.0
 11
121.9634913832
 21
320.2130267439
 31
0.0
  0
LINE
  5
155
330
1F
100
AcDbEntity
  8
0
  6
Continuous
 62
     7
370
    15
100
AcDbLine
 10
124.8429321676
 20
463.2452101489
 30
0.0
 11
124.8429321676
 21
472.1808404704
 31
0.0
  0
ARC
  5
156
330
1F
100
AcDbEntity
  8
0
  6
Continuous
 62
     7
370
    15
100
AcDbCircle
 10
118.463493043
 20
472.1808464899
 30
0.0
 40
6.37942652699968
100
AcDbArc
 50
0.0
 51
90.0
  0
LINE
  5
157
330
1F
100
AcDbEntity
  8
0
  6
Continuous
 62
     7
370
    15
100
AcDbLine
 10
118.463506642
 20
478.560265996
 30
0.0
 11
118.463506642
 21
615.2130336543
 31
0.0
  0
LINE
  5
158
330
1F
100
AcDbEntity
  8
0
  6
Continuous
 62
     7
370
    15
100
AcDbLine
 10
118.463506642
 20
615.2130336543
 30
0.0
 11
194.9635052115
 21
615.2130336543
 31
0.0
  0
LINE
  5
159
330
1F
100
AcDbEntity
  8
0
  6
Continuous
 62
     7
370
    15
100
AcDbLine
 10
194.9635052115
 20
320.2130267439
 30
0.0
 11
194.9635052115
 21
615.2130336543
 31
0.0
  0
LINE
  5
15A
330
1F
100
AcDbEntity
  8
0
  6
Continuous
 62
     7
370
    15
100
AcDbLine
 10
118.463506642
 20
320.2130267439
 30
0.0
 11
194.9635052115
 21
320.2130267439
 31
0.0
  0
ARC
  5
15B
330
1F
100
AcDbEntity
  8
0
  6
Continuous
 62
     7
370
    15
100
AcDbCircle
 10
118.463493043
 20
463.2452072824
 30
0.0
 40
6.37942652699968
100
AcDbArc
 50
270.0
 51
0.0
  0
CIRCLE
  5
15C
330
1F
100
AcDbEntity
  8
0
  6
Continuous
 62
     7
370
    15
100
AcDbCircle
 10
129.263493043
 20
403.1130268862
 30
0.0
 40
1.550000000000011
  0
CIRCLE
  5
15D
330
1F
100
AcDbEntity
  8
0
  6
Continuous
 62
     7
370
    15
100
AcDbCircle
 10
129.263493043
 20
525.2130268862
 30
0.0
 40
1.550000000000068
  0
ARC
  5
15E
330
1F
100
AcDbEntity
  8
0
  6
Continuous
 62
     7
370
    15
100
AcDbCircle
 10
186.713493043
 20
602.7130268862
 30
0.0
 40
1.5
100
AcDbArc
 50
0.0
 51
180.0
  0
LINE
  5
15F
330
1F
100
AcDbEntity
  8
0
  6
Continuous
 62
     7
370
    15
100
AcDbLine
 10
185.2134966284
 20
602.7130157729
 30
0.0
 11
185.2134966284
 21
556.1963439961
 31
0.0
  0
LINE
  5
160
330
1F
100
AcDbEntity
  8
0
  6
Continuous
 62
     7
370
    15
100
AcDbLine
 10
185.2134966284
 20
556.1963439961
 30
0.0
 11
188.2134878069
 21
565.019872882
 31
0.0
  0
LINE
  5
161
330
1F
100
AcDbEntity
  8
0
  6
Continuous
 62
     7
370
    15
100
AcDbLine
 10
182.2135054499
 20
547.3728151103
 30
0.0
 11
182.2135054499
 21
602.7130157729
 31
0.0
  0
ARC
  5
162
330
1F
100
AcDbEntity
  8
0
  6
Continuous
 62
     7
370
    15
100
AcDbCircle
 10
180.713493043
 20
602.7130268862
 30
0.0
 40
1.5
100
AcDbArc
 50
0.0
 51
180.0
  0
LINE
  5
163
330
1F
100
AcDbEntity
  8
0
  6
Continuous
 62
     7
370
    15
100
AcDbLine
 10
179.213484469
 20
602.7130157729
 30
0.0
 11
179.213484469
 21
538.5492862244
 31
0.0
  0
LINE
  5
164
330
1F
100
AcDbEntity
  8
0
  6
Continuous
 62
     7
370
    15
100
AcDbLine
 10
179.213484469
 20
538.5492862244
 30
0.0
 11
182.2135054499
 21
547.3728151103
 31
0.0
  0
ARC
  5
165
330
1F
100
AcDbEntity
  8
0
  6
Continuous
 62
     7
370
    15
100
AcDbCircle
 10
174.713493043
 20
602.7130268862
 30
0.0
 40
1.5
100
AcDbArc
 50
0.0
 51
180.0
  0
LINE
  5
166
330
1F
100
AcDbEntity
  8
0
  6
Continuous
 62
     7
370
    15
100
AcDbLine
 10
173.213502112
 20
602.7130157729
 30
0.0
 11
173.213502112
 21
520.9022284527
 31
0.0
  0
LINE
  5
167
330
1F
100
AcDbEntity
  8
0
  6
Continuous
 62
     7
370
    15
100
AcDbLine
 10
173.213502112
 20
520.9022284527
 30
0.0
 11
176.2134932905
 21
529.7257573386
 31
0.0
  0
LINE
  5
168
330
1F
100
AcDbEntity
  8
0
  6
Continuous
 62
     7
370
    15
100
AcDbLine
 10
170.2134811312
 20
512.0786995669
 30
0.0
 11
170.2134811312
 21
602.7130157729
 31
0.0
  0
ARC
  5
169
330
1F
100
AcDbEntity
  8
0
  6
Continuous
 62
     7
370
    15
100
AcDbCircle
 10
168.713493043
 20
602.7130268862
 30
0.0
 40
1.500000000000057
100
AcDbArc
 50
0.0
 51
180.0
  0
LINE
  5
16A
330
1F
100
AcDbEntity
  8
0
  6
Continuous
 62
     7
370
    15
100
AcDbLine
 10
167.2134899527
 20
602.7130157729
 30
0.0
 11
167.2134899527
 21
503.2551706811
 31
0.0
  0
LINE
  5
16B
330
1F
100
AcDbEntity
  8
0
  6
Continuous
 62
     7
370
    15
100
AcDbLine
 10
167.2134899527
 20
503.2551706811
 30
0.0
 11
170.2134811312
 21
512.0786995669
 31
0.0
  0
LINE
  5
16C
330
1F
100
AcDbEntity
  8
0
  6
Continuous
 62
     7
370
    15
100
AcDbLine
 10
164.2134987742
 20
494.4316417952
 30
0.0
 11
164.2134987742
 21
602.7130157729
 31
0.0
  0
ARC
  5
16D
330
1F
100
AcDbEntity
  8
0
  6
Continuous
 62
     7
370
    15
100
AcDbCircle
 10
162.713493043
 20
602.7130268862
 30
0.0
 40
1.500000000000028
100
AcDbArc
 50
0.0
 51
180.0
  0
LINE
  5
16E
330
1F
100
AcDbEntity
  8
0
  6
Continuous
 62
     7
370
    15
100
AcDbLine
 10
161.2135075957
 20
602.7130157729
 30
0.0
 11
161.2135075957
 21
485.6081129094
 31
0.0
  0
LINE
  5
16F
330
1F
100
AcDbEntity
  8
0
  6
Continuous
 62
     7
370
    15
100
AcDbLine
 10
161.2135075957
 20
485.6081129094
 30
0.0
 11
164.2134987742
 21
494.4316417952
 31
0.0
  0
ARC
  5
170
330
1F
100
AcDbEntity
  8
0
  6
Continuous
 62
     7
370
    15
100
AcDbCircle
 10
156.713493043
 20
332.7130268862
 30
0.0
 40
1.5
100
AcDbArc
 50
180.0
 51
0.0
  0
LINE
  5
171
330
1F
100
AcDbEntity
  8
0
  6
Continuous
 62
     7
370
    15
100
AcDbLine
 10
158.2134866148
 20
332.7130273958
 30
0.0
 11
158.2134866148
 21
458.6414665957
 31
0.0
  0
LINE
  5
172
330
1F
100
AcDbEntity
  8
0
  6
Continuous
 62
     7
370
    15
100
AcDbLine
 10
156.7135059267
 20
463.0532384892
 30
0.0
 11
158.2134866148
 21
458.6414665957
 31
0.0
  0
LINE
  5
173
330
1F
100
AcDbEntity
  8
0
  6
Continuous
 62
     7
370
    15
100
AcDbLine
 10
155.2134954363
 20
458.6414665957
 30
0.0
 11
156.7135059267
 21
463.0532384892
 31
0.0
  0
LINE
  5
174
330
1F
100
AcDbEntity
  8
0
  6
Continuous
 62
     7
370
    15
100
AcDbLine
 10
155.2134954363
 20
458.6414665957
 30
0.0
 11
155.2134954363
 21
332.7130273958
 31
0.0
  0
ARC
  5
175
330
1F
100
AcDbEntity
  8
0
  6
Continuous
 62
     7
370
    15
100
AcDbCircle
 10
150.713493043
 20
332.7130268862
 30
0.0
 40
1.5
100
AcDbArc
 50
180.0
 51
0.0
  0
LINE
  5
176
330
1F
100
AcDbEntity
  8
0
  6
Continuous
 62
     7
370
    15
100
AcDbLine
 10
152.2135042578
 20
332.7130273958
 30
0.0
 11
152.2135042578
 21
449.8179377099
 31
0.0
  0
LINE
  5
177
330
1F
100
AcDbEntity
  8
0
  6
Continuous
 62
     7
370
    15
100
AcDbLine
 10
149.213483277
 20
440.994408824
 30
0.0
 11
152.2135042578
 21
449.8179377099
 31
0.0
  0
LINE
  5
178
330
1F
100
AcDbEntity
  8
0
  6
Continuous
 62
     7
370
    15
100
AcDbLine
 10
149.213483277
 20
440.994408824
 30
0.0
 11
149.213483277
 21
332.7130273958
 31
0.0
  0
ARC
  5
179
330
1F
100
AcDbEntity
  8
0
  6
Continuous
 62
     7
370
    15
100
AcDbCircle
 10
144.713493043
 20
332.7130268862
 30
0.0
 40
1.5
100
AcDbArc
 50
180.0
 51
0.0
  0
LINE
  5
17A
330
1F
100
AcDbEntity
  8
0
  6
Continuous
 62
     7
370
    15
100
AcDbLine
 10
146.2134920984
 20
332.7130273958
 30
0.0
 11
146.2134920984
 21
432.1708799382
 31
0.0
  0
LINE
  5
17B
330
1F
100
AcDbEntity
  8
0
  6
Continuous
 62
     7
370
    15
100
AcDbLine
 10
143.2135009199
 20
423.3473510524
 30
0.0
 11
146.2134920984
 21
432.1708799382
 31
0.0
  0
LINE
  5
17C
330
1F
100
AcDbEntity
  8
0
  6
Continuous
 62
     7
370
    15
100
AcDbLine
 10
143.2135009199
 20
423.3473510524
 30
0.0
 11
143.2135009199
 21
332.7130273958
 31
0.0
  0
ARC
  5
17D
330
1F
100
AcDbEntity
  8
0
  6
Continuous
 62
     7
370
    15
100
AcDbCircle
 10
138.713493043
 20
332.7130268862
 30
0.0
 40
1.5
100
AcDbArc
 50
180.0
 51
0.0
  0
LINE
  5
17E
330
1F
100
AcDbEntity
  8
0
  6
Continuous
 62
     7
370
    15
100
AcDbLine
 10
140.2134799391
 20
332.7130273958
 30
0.0
 11
140.2134799391
 21
414.5238221665
 31
0.0
  0
LINE
  5
17F
330
1F
100
AcDbEntity
  8
0
  6
Continuous
 62
     7
370
    15
100
AcDbLine
 10
137.2134887606
 20
405.7002932807
 30
0.0
 11
140.2134799391
 21
414.5238221665
 31
0.0
  0
LINE
  5
180
330
1F
100
AcDbEntity
  8
0
  6
Continuous
 62
     7
370
    15
100
AcDbLine
 10
137.2134887606
 20
405.7002932807
 30
0.0
 11
137.2134887606
 21
332.7130273958
 31
0.0
  0
LINE
  5
181
330
1F
100
AcDbEntity
  8
0
  6
Continuous
 62
     7
370
    15
100
AcDbLine
 10
149.213483277
 20
450.313997366
 30
0.0
 11
152.2135042578
 21
459.1375262519
 31
0.0
  0
LINE
  5
182
330
1F
100
AcDbEntity
  8
0
  6
Continuous
 62
     7
370
    15
100
AcDbLine
 10
152.2135042578
 20
459.1375262519
 30
0.0
 11
152.2135042578
 21
476.2885243674
 31
0.0
  0
LINE
  5
183
330
1F
100
AcDbEntity
  8
0
  6
Continuous
 62
     7
370
    15
100
AcDbLine
 10
149.213483277
 20
485.1120532532
 30
0.0
 11
152.2135042578
 21
476.2885243674
 31
0.0
  0
LINE
  5
184
330
1F
100
AcDbEntity
  8
0
  6
Continuous
 62
     7
370
    15
100
AcDbLine
 10
149.213483277
 20
485.1120532532
 30
0.0
 11
149.213483277
 21
450.313997366
 31
0.0
  0
LINE
  5
185
330
1F
100
AcDbEntity
  8
0
  6
Continuous
 62
     7
370
    15
100
AcDbLine
 10
143.2135009199
 20
432.6669395943
 30
0.0
 11
146.2134920984
 21
441.4904684802
 31
0.0
  0
LINE
  5
186
330
1F
100
AcDbEntity
  8
0
  6
Continuous
 62
     7
370
    15
100
AcDbLine
 10
146.2134920984
 20
441.4904684802
 30
0.0
 11
146.2134920984
 21
493.9355821391
 31
0.0
  0
LINE
  5
187
330
1F
100
AcDbEntity
  8
0
  6
Continuous
 62
     7
370
    15
100
AcDbLine
 10
143.2135009199
 20
502.7591110249
 30
0.0
 11
146.2134920984
 21
493.9355821391
 31
0.0
  0
LINE
  5
188
330
1F
100
AcDbEntity
  8
0
  6
Continuous
 62
     7
370
    15
100
AcDbLine
 10
143.2135009199
 20
502.7591110249
 30
0.0
 11
143.2135009199
 21
432.6669395943
 31
0.0
  0
LINE
  5
189
330
1F
100
AcDbEntity
  8
0
  6
Continuous
 62
     7
370
    15
100
AcDbLine
 10
137.2134887606
 20
415.0198818227
 30
0.0
 11
140.2134799391
 21
423.8434107085
 31
0.0
  0
LINE
  5
18A
330
1F
100
AcDbEntity
  8
0
  6
Continuous
 62
     7
370
    15
100
AcDbLine
 10
140.2134799391
 20
423.8434107085
 30
0.0
 11
140.2134799391
 21
511.5826399108
 31
0.0
  0
LINE
  5
18B
330
1F
100
AcDbEntity
  8
0
  6
Continuous
 62
     7
370
    15
100
AcDbLine
 10
137.2134887606
 20
520.4061687966
 30
0.0
 11
140.2134799391
 21
511.5826399108
 31
0.0
  0
LINE
  5
18C
330
1F
100
AcDbEntity
  8
0
  6
Continuous
 62
     7
370
    15
100
AcDbLine
 10
137.2134887606
 20
520.4061687966
 30
0.0
 11
137.2134887606
 21
415.0198818227
 31
0.0
  0
LINE
  5
18D
330
1F
100
AcDbEntity
  8
0
  6
Continuous
 62
     7
370
    15
100
AcDbLine
 10
156.7135059267
 20
472.37281213
 30
0.0
 11
158.2134866148
 21
476.7845840235
 31
0.0
  0
LINE
  5
18E
330
1F
100
AcDbEntity
  8
0
  6
Continuous
 62
     7
370
    15
100
AcDbLine
 10
158.2134866148
 20
476.7845840235
 30
0.0
 11
158.2134866148
 21
602.7130157729
 31
0.0
  0
ARC
  5
18F
330
1F
100
AcDbEntity
  8
0
  6
Continuous
 62
     7
370
    15
100
AcDbCircle
 10
156.713493043
 20
602.7130268862
 30
0.0
 40
1.5
100
AcDbArc
 50
0.0
 51
180.0
  0
LINE
  5
190
330
1F
100
AcDbEntity
  8
0
  6
Continuous
 62
     7
370
    15
100
AcDbLine
 10
155.2134954363
 20
602.7130157729
 30
0.0
 11
155.2134954363
 21
476.7845840235
 31
0.0
  0
LINE
  5
191
330
1F
100
AcDbEntity
  8
0
  6
Continuous
 62
     7
370
    15
100
AcDbLine
 10
155.2134954363
 20
476.7845840235
 30
0.0
 11
156.7135059267
 21
472.37281213
 31
0.0
  0
ARC
  5
192
330
1F
100
AcDbEntity
  8
0
  6
Continuous
 62
     7
370
    15
100
AcDbCircle
 10
150.713493043
 20
602.7130268862
 30
0.0
 40
1.5
100
AcDbArc
 50
0.0
 51
180.0
  0
LINE
  5
193
330
1F
100
AcDbEntity
  8
0
  6
Continuous
 62
     7
370
    15
100
AcDbLine
 10
149.213483277
 20
602.7130157729
 30
0.0
 11
149.213483277
 21
494.4316417952
 31
0.0
  0
LINE
  5
194
330
1F
100
AcDbEntity
  8
0
  6
Continuous
 62
     7
370
    15
100
AcDbLine
 10
149.213483277
 20
494.4316417952
 30
0.0
 11
152.2135042578
 21
485.6081129094
 31
0.0
  0
LINE
  5
195
330
1F
100
AcDbEntity
  8
0
  6
Continuous
 62
     7
370
    15
100
AcDbLine
 10
146.2134920984
 20
503.2551706811
 30
0.0
 11
146.2134920984
 21
602.7130157729
 31
0.0
  0
ARC
  5
196
330
1F
100
AcDbEntity
  8
0
  6
Continuous
 62
     7
370
    15
100
AcDbCircle
 10
144.713493043
 20
602.7130268862
 30
0.0
 40
1.5
100
AcDbArc
 50
0.0
 51
180.0
  0
LINE
  5
197
330
1F
100
AcDbEntity
  8
0
  6
Continuous
 62
     7
370
    15
100
AcDbLine
 10
143.2135009199
 20
602.7130157729
 30
0.0
 11
143.2135009199
 21
512.0786995669
 31
0.0
  0
LINE
  5
198
330
1F
100
AcDbEntity
  8
0
  6
Continuous
 62
     7
370
    15
100
AcDbLine
 10
143.2135009199
 20
512.0786995669
 30
0.0
 11
146.2134920984
 21
503.2551706811
 31
0.0
  0
LINE
  5
199
330
1F
100
AcDbEntity
  8
0
  6
Continuous
 62
     7
370
    15
100
AcDbLine
 10
140.2134799391
 20
520.9022284527
 30
0.0
 11
140.2134799391
 21
602.7130157729
 31
0.0
  0
ARC
  5
19A
330
1F
100
AcDbEntity
  8
0
  6
Continuous
 62
     7
370
    15
100
AcDbCircle
 10
138.713493043
 20
602.7130268862
 30
0.0
 40
1.5
100
AcDbArc
 50
0.0
 51
180.0
  0
LINE
  5
19B
330
1F
100
AcDbEntity
  8
0
  6
Continuous
 62
     7
370
    15
100
AcDbLine
 10
137.2134887606
 20
602.7130157729
 30
0.0
 11
137.2134887606
 21
529.7257573386
 31
0.0
  0
LINE
  5
19C
330
1F
100
AcDbEntity
  8
0
  6
Continuous
 62
     7
370
    15
100
AcDbLine
 10
137.2134887606
 20
529.7257573386
 30
0.0
 11
140.2134799391
 21
520.9022284527
 31
0.0
  0
ARC
  5
19D
330
1F
100
AcDbEntity
  8
0
  6
Continuous
 62
     7
370
    15
100
AcDbCircle
 10
186.713493043
 20
332.7130268862
 30
0.0
 40
1.5
100
AcDbArc
 50
180.0
 51
0.0
  0
LINE
  5
19E
330
1F
100
AcDbEntity
  8
0
  6
Continuous
 62
     7
370
    15
100
AcDbLine
 10
188.2134878069
 20
332.7130273958
 30
0.0
 11
188.2134878069
 21
370.406174012
 31
0.0
  0
LINE
  5
19F
330
1F
100
AcDbEntity
  8
0
  6
Continuous
 62
     7
370
    15
100
AcDbLine
 10
185.2134966284
 20
379.2297066231
 30
0.0
 11
188.2134878069
 21
370.406174012
 31
0.0
  0
LINE
  5
1A0
330
1F
100
AcDbEntity
  8
0
  6
Continuous
 62
     7
370
    15
100
AcDbLine
 10
185.2134966284
 20
379.2297066231
 30
0.0
 11
185.2134966284
 21
332.7130273958
 31
0.0
  0
ARC
  5
1A1
330
1F
100
AcDbEntity
  8
0
  6
Continuous
 62
     7
370
    15
100
AcDbCircle
 10
180.713493043
 20
332.7130268862
 30
0.0
 40
1.5
100
AcDbArc
 50
180.0
 51
0.0
  0
LINE
  5
1A2
330
1F
100
AcDbEntity
  8
0
  6
Continuous
 62
     7
370
    15
100
AcDbLine
 10
182.2135054499
 20
332.7130273958
 30
0.0
 11
182.2135054499
 21
388.053235509
 31
0.0
  0
LINE
  5
1A3
330
1F
100
AcDbEntity
  8
0
  6
Continuous
 62
     7
370
    15
100
AcDbLine
 10
179.2134844691
 20
396.8767643948
 30
0.0
 11
182.2135054499
 21
388.053235509
 31
0.0
  0
LINE
  5
1A4
330
1F
100
AcDbEntity
  8
0
  6
Continuous
 62
     7
370
    15
100
AcDbLine
 10
179.2134844691
 20
396.8767643948
 30
0.0
 11
179.2134844691
 21
332.7130273958
 31
0.0
  0
ARC
  5
1A5
330
1F
100
AcDbEntity
  8
0
  6
Continuous
 62
     7
370
    15
100
AcDbCircle
 10
174.713493043
 20
332.7130268862
 30
0.0
 40
1.5
100
AcDbArc
 50
180.0
 51
0.0
  0
LINE
  5
1A6
330
1F
100
AcDbEntity
  8
0
  6
Continuous
 62
     7
370
    15
100
AcDbLine
 10
176.2134932905
 20
332.7130273958
 30
0.0
 11
176.2134932905
 21
405.7002932807
 31
0.0
  0
LINE
  5
1A7
330
1F
100
AcDbEntity
  8
0
  6
Continuous
 62
     7
370
    15
100
AcDbLine
 10
173.213502112
 20
414.5238221665
 30
0.0
 11
176.2134932905
 21
405.7002932807
 31
0.0
  0
LINE
  5
1A8
330
1F
100
AcDbEntity
  8
0
  6
Continuous
 62
     7
370
    15
100
AcDbLine
 10
173.213502112
 20
414.5238221665
 30
0.0
 11
173.213502112
 21
332.7130273958
 31
0.0
  0
ARC
  5
1A9
330
1F
100
AcDbEntity
  8
0
  6
Continuous
 62
     7
370
    15
100
AcDbCircle
 10
168.713493043
 20
332.7130268862
 30
0.0
 40
1.500000000000057
100
AcDbArc
 50
180.0
 51
0.0
  0
LINE
  5
1AA
330
1F
100
AcDbEntity
  8
0
  6
Continuous
 62
     7
370
    15
100
AcDbLine
 10
170.2134811312
 20
332.7130273958
 30
0.0
 11
170.2134811312
 21
423.3473510524
 31
0.0
  0
LINE
  5
1AB
330
1F
100
AcDbEntity
  8
0
  6
Continuous
 62
     7
370
    15
100
AcDbLine
 10
167.2134899527
 20
432.1708799382
 30
0.0
 11
170.2134811312
 21
423.3473510524
 31
0.0
  0
LINE
  5
1AC
330
1F
100
AcDbEntity
  8
0
  6
Continuous
 62
     7
370
    15
100
AcDbLine
 10
167.2134899527
 20
432.1708799382
 30
0.0
 11
167.2134899527
 21
332.7130273958
 31
0.0
  0
ARC
  5
1AD
330
1F
100
AcDbEntity
  8
0
  6
Continuous
 62
     7
370
    15
100
AcDbCircle
 10
162.713493043
 20
332.7130268862
 30
0.0
 40
1.5
100
AcDbArc
 50
180.0
 51
0.0
  0
LINE
  5
1AE
330
1F
100
AcDbEntity
  8
0
  6
Continuous
 62
     7
370
    15
100
AcDbLine
 10
164.2134987742
 20
332.7130273958
 30
0.0
 11
164.2134987742
 21
440.994408824
 31
0.0
  0
LINE
  5
1AF
330
1F
100
AcDbEntity
  8
0
  6
Continuous
 62
     7
370
    15
100
AcDbLine
 10
161.2135075957
 20
449.8179377099
 30
0.0
 11
164.2134987742
 21
440.994408824
 31
0.0
  0
LINE
  5
1B0
330
1F
100
AcDbEntity
  8
0
  6
Continuous
 62
     7
370
    15
100
AcDbLine
 10
161.2135075957
 20
449.8179377099
 30
0.0
 11
161.2135075957
 21
332.7130273958
 31
0.0
  0
LINE
  5
1B1
330
1F
100
AcDbEntity
  8
0
  6
Continuous
 62
     7
370
    15
100
AcDbLine
 10
188.2134878069
 20
379.7257588287
 30
0.0
 11
188.2134878069
 21
555.7002992411
 31
0.0
  0
LINE
  5
1B2
330
1F
100
AcDbEntity
  8
0
  6
Continuous
 62
     7
370
    15
100
AcDbLine
 10
185.2134966284
 20
546.8767703553
 30
0.0
 11
188.2134878069
 21
555.7002992411
 31
0.0
  0
LINE
  5
1B3
330
1F
100
AcDbEntity
  8
0
  6
Continuous
 62
     7
370
    15
100
AcDbLine
 10
185.2134966284
 20
546.8767703553
 30
0.0
 11
185.2134966284
 21
388.5492877145
 31
0.0
  0
LINE
  5
1B4
330
1F
100
AcDbEntity
  8
0
  6
Continuous
 62
     7
370
    15
100
AcDbLine
 10
185.2134966284
 20
388.5492877145
 30
0.0
 11
188.2134878069
 21
379.7257588287
 31
0.0
  0
LINE
  5
1B5
330
1F
100
AcDbEntity
  8
0
  6
Continuous
 62
     7
370
    15
100
AcDbLine
 10
182.2135054499
 20
397.3728166004
 30
0.0
 11
182.2135054499
 21
538.0532414694
 31
0.0
  0
LINE
  5
1B6
330
1F
100
AcDbEntity
  8
0
  6
Continuous
 62
     7
370
    15
100
AcDbLine
 10
179.2134844691
 20
529.2296976824
 30
0.0
 11
182.2135054499
 21
538.0532414694
 31
0.0
  0
LINE
  5
1B7
330
1F
100
AcDbEntity
  8
0
  6
Continuous
 62
     7
370
    15
100
AcDbLine
 10
179.2134844691
 20
529.2296976824
 30
0.0
 11
179.2134844691
 21
406.1963454862
 31
0.0
  0
LINE
  5
1B8
330
1F
100
AcDbEntity
  8
0
  6
Continuous
 62
     7
370
    15
100
AcDbLine
 10
179.2134844691
 20
406.1963454862
 30
0.0
 11
182.2135054499
 21
397.3728166004
 31
0.0
  0
LINE
  5
1B9
330
1F
100
AcDbEntity
  8
0
  6
Continuous
 62
     7
370
    15
100
AcDbLine
 10
176.2134932905
 20
415.0198818227
 30
0.0
 11
176.2134932905
 21
520.4061687966
 31
0.0
  0
LINE
  5
1BA
330
1F
100
AcDbEntity
  8
0
  6
Continuous
 62
     7
370
    15
100
AcDbLine
 10
173.213502112
 20
511.5826399108
 30
0.0
 11
176.2134932905
 21
520.4061687966
 31
0.0
  0
LINE
  5
1BB
330
1F
100
AcDbEntity
  8
0
  6
Continuous
 62
     7
370
    15
100
AcDbLine
 10
173.213502112
 20
511.5826399108
 30
0.0
 11
173.213502112
 21
423.8434107085
 31
0.0
  0
LINE
  5
1BC
330
1F
100
AcDbEntity
  8
0
  6
Continuous
 62
     7
370
    15
100
AcDbLine
 10
173.213502112
 20
423.8434107085
 30
0.0
 11
176.2134932905
 21
415.0198818227
 31
0.0
  0
LINE
  5
1BD
330
1F
100
AcDbEntity
  8
0
  6
Continuous
 62
     7
370
    15
100
AcDbLine
 10
170.2134811312
 20
432.6669395943
 30
0.0
 11
170.2134811312
 21
502.7591110249
 31
0.0
  0
LINE
  5
1BE
330
1F
100
AcDbEntity
  8
0
  6
Continuous
 62
     7
370
    15
100
AcDbLine
 10
167.2134899527
 20
493.9355821391
 30
0.0
 11
170.2134811312
 21
502.7591110249
 31
0.0
  0
LINE
  5
1BF
330
1F
100
AcDbEntity
  8
0
  6
Continuous
 62
     7
370
    15
100
AcDbLine
 10
167.2134899527
 20
493.9355821391
 30
0.0
 11
167.2134899527
 21
441.4904684802
 31
0.0
  0
LINE
  5
1C0
330
1F
100
AcDbEntity
  8
0
  6
Continuous
 62
     7
370
    15
100
AcDbLine
 10
167.2134899527
 20
441.4904684802
 30
0.0
 11
170.2134811312
 21
432.6669395943
 31
0.0
  0
LINE
  5
1C1
330
1F
100
AcDbEntity
  8
0
  6
Continuous
 62
     7
370
    15
100
AcDbLine
 10
164.2134987742
 20
450.313997366
 30
0.0
 11
164.2134987742
 21
485.1120532532
 31
0.0
  0
LINE
  5
1C2
330
1F
100
AcDbEntity
  8
0
  6
Continuous
 62
     7
370
    15
100
AcDbLine
 10
161.2135075957
 20
476.2885243674
 30
0.0
 11
164.2134987742
 21
485.1120532532
 31
0.0
  0
LINE
  5
1C3
330
1F
100
AcDbEntity
  8
0
  6
Continuous
 62
     7
370
    15
100
AcDbLine
 10
161.2135075957
 20
476.2885243674
 30
0.0
 11
161.2135075957
 21
459.1375262519
 31
0.0
  0
LINE
  5
1C4
330
1F
100
AcDbEntity
  8
0
  6
Continuous
 62
     7
370
    15
100
AcDbLine
 10
161.2135075957
 20
459.1375262519
 30
0.0
 11
164.2134987742
 21
450.313997366
 31
0.0
  0
LINE
  5
1C5
330
1F
100
AcDbEntity
  8
0
  6
Continuous
 62
     7
370
    15
100
AcDbLine
 10
118.463506642
 20
320.2130267439
 30
0.0
 11
118.463506642
 21
456.8657846232
 31
0.0
  0
LINE
  5
1C6
330
1F
100
AcDbEntity
  8
0
  6
Continuous
 62
     7
370
    15
100
AcDbLine
 10
176.2134932905
 20
529.7257573386
 30
0.0
 11
176.2134932905
 21
602.7130157729
 31
0.0
  0
LINE
  5
1C7
330
1F
100
AcDbEntity
  8
0
  6
Continuous
 62
     7
370
    15
100
AcDbLine
 10
152.2135042578
 20
485.6081129094
 30
0.0
 11
152.2135042578
 21
602.7130157729
 31
0.0
  0
LINE
  5
1C8
330
1F
100
AcDbEntity
  8
0
  6
Continuous
 62
     7
370
    15
100
AcDbLine
 10
188.2134878069
 20
565.019872882
 30
0.0
 11
188.2134878069
 21
602.7130157729
 31
0.0
  0
LINE
  5
1C9
330
1F
100
AcDbEntity
  8
0
  6
Continuous
 62
     7
370
    15
100
AcDbLine
 10
121.9634913832
 20
687.2130305548
 30
0.0
 11
206.4635061651
 21
687.2130305548
 31
0.0
  0
LINE
  5
1CA
330
1F
100
AcDbEntity
  8
0
  6
Continuous
 62
     7
370
    15
100
AcDbLine
 10
206.4635061651
 20
687.2130305548
 30
0.0
 11
206.4635061651
 21
615.2130336543
 31
0.0
  0
LINE
  5
1CB
330
1F
100
AcDbEntity
  8
0
  6
Continuous
 62
     7
370
    15
100
AcDbLine
 10
206.4635061651
 20
615.2130336543
 30
0.0
 11
121.9634913832
 21
615.2130336543
 31
0.0
  0
LINE
  5
1CC
330
1F
100
AcDbEntity
  8
0
  6
Continuous
 62
     7
370
    15
100
AcDbLine
 10
121.9634913832
 20
615.2130336543
 30
0.0
 11
121.9634913832
 21
687.2130305548
 31
0.0
  0
CIRCLE
  5
1CD
330
1F
100
AcDbEntity
  8
0
  6
Continuous
 62
     7
370
    15
100
AcDbCircle
 10
201.463493043
 20
620.2130268862
 30
0.0
 40
1.5
  0
CIRCLE
  5
1CE
330
1F
100
AcDbEntity
  8
0
  6
Continuous
 62
     7
370
    15
100
AcDbCircle
 10
201.463493043
 20
682.2130268862
 30
0.0
 40
1.500000000000028
  0
LINE
  5
1CF
330
1F
100
AcDbEntity
  8
0
  6
Continuous
 62
     7
370
    15
100
AcDbLine
 10
37.4634766012
 20
687.2130305548
 30
0.0
 11
121.9634913832
 21
687.2130305548
 31
0.0
  0
LINE
  5
1D0
330
1F
100
AcDbEntity
  8
0
  6
Continuous
 62
     7
370
    15
100
AcDbLine
 10
121.9634913832
 20
615.2130336543
 30
0.0
 11
37.4634766012
 21
615.2130336543
 31
0.0
  0
CIRCLE
  5
1D1
330
1F
100
AcDbEntity
  8
0
  6
Continuous
 62
     7
370
    15
100
AcDbCircle
 10
116.963493043
 20
620.2130268862
 30
0.0
 40
1.5
  0
CIRCLE
  5
1D2
330
1F
100
AcDbEntity
  8
0
  6
Continuous
 62
     7
370
    15
100
AcDbCircle
 10
116.963493043
 20
682.2130268862
 30
0.0
 40
1.5
  0
LINE
  5
1D3
330
1F
100
AcDbEntity
  8
0
  6
Continuous
 62
     7
370
    15
100
AcDbLine
 10
37.4634766012
 20
615.2130336543
 30
0.0
 11
37.4634766012
 21
687.2130305548
 31
0.0
  0
LINE
  5
1D4
330
1F
100
AcDbEntity
  8
0
  6
Continuous
 62
     7
370
    15
100
AcDbLine
 10
118.463506642
 20
615.2130336543
 30
0.0
 11
118.463506642
 21
320.2130267439
 31
0.0
  0
LINE
  5
1D5
330
1F
100
AcDbEntity
  8
0
  6
Continuous
 62
     7
370
    15
100
AcDbLine
 10
118.463506642
 20
320.2130267439
 30
0.0
 11
37.4634766012
 21
320.2130267439
 31
0.0
  0
LINE
  5
1D6
330
1F
100
AcDbEntity
  8
0
  6
Continuous
 62
     7
370
    15
100
AcDbLine
 10
37.4634766012
 20
320.2130267439
 30
0.0
 11
37.4634766012
 21
615.2130336543
 31
0.0
  0
LINE
  5
1D7
330
1F
100
AcDbEntity
  8
0
  6
Continuous
 62
     7
370
    15
100
AcDbLine
 10
37.4634766012
 20
615.2130336543
 30
0.0
 11
118.463506642
 21
615.2130336543
 31
0.0
  0
ENDSEC
  0
SECTION
  2
OBJECTS
  0
DICTIONARY
  5
C
330
0
100
AcDbDictionary
281
     1
  3
ACAD_GROUP
350
D
  3
ACAD_LAYOUT
350
1A
  3
ACAD_MLINESTYLE
350
17
  3
ACAD_PLOTSETTINGS
350
19
  3
ACAD_PLOTSTYLENAME
350
E
  3
ACAD_SCALELIST
350
47
  0
DICTIONARY
  5
D
102
{ACAD_REACTORS
330
C
102
}
330
C
100
AcDbDictionary
281
     1
  0
DICTIONARY
  5
1A
102
{ACAD_REACTORS
330
C
102
}
330
C
100
AcDbDictionary
281
     1
  3
Layout1
350
1E
  3
Layout2
350
26
  3
Model
350
22
  0
DICTIONARY
  5
17
102
{ACAD_REACTORS
330
C
102
}
330
C
100
AcDbDictionary
281
     1
  3
Standard
350
18
  0
DICTIONARY
  5
19
102
{ACAD_REACTORS
330
C
102
}
330
C
100
AcDbDictionary
281
     1
  0
ACDBDICTIONARYWDFLT
  5
E
102
{ACAD_REACTORS
330
C
102
}
330
C
100
AcDbDictionary
281
     1
  3
Normal
350
F
100
AcDbDictionaryWithDefault
340
F
  0
DICTIONARY
  5
47
102
{ACAD_REACTORS
330
C
102
}
330
C
100
AcDbDictionary
281
     1
  3
A0
350
48
  3
A1
350
49
  3
A2
350
4A
  3
A3
350
4B
  3
A4
350
4C
  3
A5
350
4D
  3
A6
350
4E
  3
A7
350
4F
  3
A8
350
50
  3
A9
350
51
  3
B0
350
52
  3
B1
350
53
  3
B2
350
54
  3
B3
350
55
  3
B4
350
56
  3
B5
350
57
  3
B6
350
58
  3
B7
350
59
  3
B8
350
5A
  3
B9
350
5B
  3
C0
350
5C
  3
C1
350
5D
  3
C2
350
5E
  3
C3
350
5F
  3
C4
350
60
  3
C5
350
61
  3
C6
350
62
  3
C7
350
63
  3
C8
350
64
  3
C9
350
65
  3
D0
350
66
  3
D1
350
67
  3
D2
350
68
  0
LAYOUT
  5
1E
102
{ACAD_REACTORS
330
1A
102
}
330
1A
100
AcDbPlotSettings
  1

  2
none_device
  4

  6

 40
0.0
 41
0.0
 42
0.0
 43
0.0
 44
0.0
 45
0.0
 46
0.0
 47
0.0
 48
0.0
 49
0.0
140
0.0
141
0.0
142
1.0
143
1.0
 70
   688
 72
     1
 73
     0
 74
     5
  7

 75
    16
147
1.0
148
0.0
149
0.0
100
AcDbLayout
  1
Layout1
 70
     1
 71
     1
 10
0.0
 20
0.0
 11
420.0
 21
297.0
 12
0.0
 22
0.0
 32
0.0
 14
1.0000000000E+20
 24
1.0000000000E+20
 34
1.0000000000E+20
 15
-1.0000000000E+20
 25
-1.0000000000E+20
 35
-1.0000000000E+20
146
0.0
 13
0.0
 23
0.0
 33
0.0
 16
1.0
 26
0.0
 36
0.0
 17
0.0
 27
1.0
 37
0.0
 76
     0
330
1B
  0
LAYOUT
  5
26
102
{ACAD_REACTORS
330
1A
102
}
330
1A
100
AcDbPlotSettings
  1

  2
none_device
  4

  6

 40
0.0
 41
0.0
 42
0.0
 43
0.0
 44
0.0
 45
0.0
 46
0.0
 47
0.0
 48
0.0
 49
0.0
140
0.0
141
0.0
142
1.0
143
1.0
 70
   688
 72
     1
 73
     0
 74
     5
  7

 75
    16
147
1.0
148
0.0
149
0.0
100
AcDbLayout
  1
Layout2
 70
     1
 71
     2
 10
0.0
 20
0.0
 11
0.0
 21
0.0
 12
0.0
 22
0.0
 32
0.0
 14
0.0
 24
0.0
 34
0.0
 15
0.0
 25
0.0
 35
0.0
146
0.0
 13
0.0
 23
0.0
 33
0.0
 16
1.0
 26
0.0
 36
0.0
 17
0.0
 27
1.0
 37
0.0
 76
     0
330
23
  0
LAYOUT
  5
22
102
{ACAD_REACTORS
330
1A
102
}
330
1A
100
AcDbPlotSettings
  1

  2
none_device
  4
Letter_(8.50_x_11.00_Inches)
  6

 40
6.35
 41
6.35
 42
6.35000508
 43
6.35000508
 44
215.9
 45
279.4
 46
0.0
 47
0.0
 48
0.0
 49
0.0
140
0.0
141
0.0
142
1.0
143
1.0
 70
  1712
 72
     1
 73
     0
 74
     0
  7

 75
     0
147
1.0
148
0.0
149
0.0
100
AcDbLayout
  1
Model
 70
     1
 71
     0
 10
0.0
 20
0.0
 11
609.6
 21
990.6
 12
0.0
 22
0.0
 32
0.0
 14
0.0
 24
0.0
 34
0.0
 15
609.6
 25
990.6
 35
0.0
146
0.0
 13
0.0
 23
0.0
 33
0.0
 16
1.0
 26
0.0
 36
0.0
 17
0.0
 27
1.0
 37
0.0
 76
     0
330
1F
331
29
  0
MLINESTYLE
  5
18
102
{ACAD_REACTORS
330
17
102
}
330
17
100
AcDbMlineStyle
  2
Standard
 70
     0
  3

 62
   256
 51
90.0
 52
90.0
 71
     2
 49
0.5
 62
   256
  6
BYLAYER
 49
-0.5
 62
   256
  6
BYLAYER
  0
ACDBPLACEHOLDER
  5
F
102
{ACAD_REACTORS
330
E
102
}
330
E
  0
SCALE
  5
48
102
{ACAD_REACTORS
330
47
102
}
330
47
100
AcDbScale
 70
     0
300
1:1
140
1.0
141
1.0
290
     1
  0
SCALE
  5
49
102
{ACAD_REACTORS
330
47
102
}
330
47
100
AcDbScale
 70
     0
300
1:2
140
1.0
141
2.0
290
     0
  0
SCALE
  5
4A
102
{ACAD_REACTORS
330
47
102
}
330
47
100
AcDbScale
 70
     0
300
1:4
140
1.0
141
4.0
290
     0
  0
SCALE
  5
4B
102
{ACAD_REACTORS
330
47
102
}
330
47
100
AcDbScale
 70
     0
300
1:5
140
1.0
141
5.0
290
     0
  0
SCALE
  5
4C
102
{ACAD_REACTORS
330
47
102
}
330
47
100
AcDbScale
 70
     0
300
1:8
140
1.0
141
8.0
290
     0
  0
SCALE
  5
4D
102
{ACAD_REACTORS
330
47
102
}
330
47
100
AcDbScale
 70
     0
300
1:10
140
1.0
141
10.0
290
     0
  0
SCALE
  5
4E
102
{ACAD_REACTORS
330
47
102
}
330
47
100
AcDbScale
 70
     0
300
1:16
140
1.0
141
16.0
290
     0
  0
SCALE
  5
4F
102
{ACAD_REACTORS
330
47
102
}
330
47
100
AcDbScale
 70
     0
300
1:20
140
1.0
141
20.0
290
     0
  0
SCALE
  5
50
102
{ACAD_REACTORS
330
47
102
}
330
47
100
AcDbScale
 70
     0
300
1:30
140
1.0
141
30.0
290
     0
  0
SCALE
  5
51
102
{ACAD_REACTORS
330
47
102
}
330
47
100
AcDbScale
 70
     0
300
1:40
140
1.0
141
40.0
290
     0
  0
SCALE
  5
52
102
{ACAD_REACTORS
330
47
102
}
330
47
100
AcDbScale
 70
     0
300
1:50
140
1.0
141
50.0
290
     0
  0
SCALE
  5
53
102
{ACAD_REACTORS
330
47
102
}
330
47
100
AcDbScale
 70
     0
300
1:100
140
1.0
141
100.0
290
     0
  0
SCALE
  5
54
102
{ACAD_REACTORS
330
47
102
}
330
47
100
AcDbScale
 70
     0
300
2:1
140
2.0
141
1.0
290
     0
  0
SCALE
  5
55
102
{ACAD_REACTORS
330
47
102
}
330
47
100
AcDbScale
 70
     0
300
4:1
140
4.0
141
1.0
290
     0
  0
SCALE
  5
56
102
{ACAD_REACTORS
330
47
102
}
330
47
100
AcDbScale
 70
     0
300
8:1
140
8.0
141
1.0
290
     0
  0
SCALE
  5
57
102
{ACAD_REACTORS
330
47
102
}
330
47
100
AcDbScale
 70
     0
300
10:1
140
10.0
141
1.0
290
     0
  0
SCALE
  5
58
102
{ACAD_REACTORS
330
47
102
}
330
47
100
AcDbScale
 70
     0
300
100:1
140
100.0
141
1.0
290
     0
  0
SCALE
  5
59
102
{ACAD_REACTORS
330
47
102
}
330
47
100
AcDbScale
 70
     0
300
1/128" = 1'-0"
140
0.0078125
141
12.0
290
     0
  0
SCALE
  5
5A
102
{ACAD_REACTORS
330
47
102
}
330
47
100
AcDbScale
 70
     0
300
1/64" = 1'-0"
140
0.015625
141
12.0
290
     0
  0
SCALE
  5
5B
102
{ACAD_REACTORS
330
47
102
}
330
47
100
AcDbScale
 70
     0
300
1/32" = 1'-0"
140
0.03125
141
12.0
290
     0
  0
SCALE
  5
5C
102
{ACAD_REACTORS
330
47
102
}
330
47
100
AcDbScale
 70
     0
300
1/16" = 1'-0"
140
0.0625
141
12.0
290
     0
  0
SCALE
  5
5D
102
{ACAD_REACTORS
330
47
102
}
330
47
100
AcDbScale
 70
     0
300
3/32" = 1'-0"
140
0.09375
141
12.0
290
     0
  0
SCALE
  5
5E
102
{ACAD_REACTORS
330
47
102
}
330
47
100
AcDbScale
 70
     0
300
1/8" = 1'-0"
140
0.125
141
12.0
290
     0
  0
SCALE
  5
5F
102
{ACAD_REACTORS
330
47
102
}
330
47
100
AcDbScale
 70
     0
300
3/16" = 1'-0"
140
0.1875
141
12.0
290
     0
  0
SCALE
  5
60
102
{ACAD_REACTORS
330
47
102
}
330
47
100
AcDbScale
 70
     0
300
1/4" = 1'-0"
140
0.25
141
12.0
290
     0
  0
SCALE
  5
61
102
{ACAD_REACTORS
330
47
102
}
330
47
100
AcDbScale
 70
     0
300
3/8" = 1'-0"
140
0.375
141
12.0
290
     0
  0
SCALE
  5
62
102
{ACAD_REACTORS
330
47
102
}
330
47
100
AcDbScale
 70
     0
300
1/2" = 1'-0"
140
0.5
141
12.0
290
     0
  0
SCALE
  5
63
102
{ACAD_REACTORS
330
47
102
}
330
47
100
AcDbScale
 70
     0
300
3/4" = 1'-0"
140
0.75
141
12.0
290
     0
  0
SCALE
  5
64
102
{ACAD_REACTORS
330
47
102
}
330
47
100
AcDbScale
 70
     0
300
1" = 1'-0"
140
1.0
141
12.0
290
     0
  0
SCALE
  5
65
102
{ACAD_REACTORS
330
47
102
}
330
47
100
AcDbScale
 70
     0
300
1-1/2" = 1'-0"
140
1.5
141
12.0
290
     0
  0
SCALE
  5
66
102
{ACAD_REACTORS
330
47
102
}
330
47
100
AcDbScale
 70
     0
300
3" = 1'-0"
140
3.0
141
12.0
290
     0
  0
SCALE
  5
67
102
{ACAD_REACTORS
330
47
102
}
330
47
100
AcDbScale
 70
     0
300
6" = 1'-0"
140
6.0
141
12.0
290
     0
  0
SCALE
  5
68
102
{ACAD_REACTORS
330
47
102
}
330
47
100
AcDbScale
 70
     0
300
1'-0" = 1'-0"
140
12.0
141
12.0
290
     0
  0
ENDSEC
  0
EOF
